<svg version="1.1" viewBox="0.0 0.0 960.0 720.0" fill="none" stroke="none" stroke-linecap="square" stroke-miterlimit="10" xmlns:xlink="http://www.w3.org/1999/xlink" xmlns="http://www.w3.org/2000/svg"><clipPath id="p.0"><path d="m0 0l960.0 0l0 720.0l-960.0 0l0 -720.0z" clip-rule="nonzero"/></clipPath><g clip-path="url(#p.0)"><path fill="#000000" fill-opacity="0.0" d="m0 0l960.0 0l0 720.0l-960.0 0z" fill-rule="evenodd"/><path fill="#033e6a" d="m278.84143 82.38842l0 0c0 -32.24995 26.136688 -58.3937 58.37796 -58.3937l0 0c15.482788 0 30.331451 6.152176 41.27945 17.10312c10.947968 10.950943 17.09851 25.803604 17.09851 41.29058l0 0c0 32.249947 -26.136719 58.3937 -58.37796 58.3937l0 0c-32.241272 0 -58.37796 -26.143753 -58.37796 -58.3937z" fill-rule="evenodd"/><path stroke="#033e6a" stroke-width="4.0" stroke-linejoin="round" stroke-linecap="butt" d="m278.84143 82.38842l0 0c0 -32.24995 26.136688 -58.3937 58.37796 -58.3937l0 0c15.482788 0 30.331451 6.152176 41.27945 17.10312c10.947968 10.950943 17.09851 25.803604 17.09851 41.29058l0 0c0 32.249947 -26.136719 58.3937 -58.37796 58.3937l0 0c-32.241272 0 -58.37796 -26.143753 -58.37796 -58.3937z" fill-rule="evenodd"/><path fill="#033e6a" d="m126.028534 340.05286l0 0c0 -32.24997 26.136703 -58.393707 58.377945 -58.393707l0 0c15.482803 0 30.331467 6.1521606 41.27945 17.103119c10.947998 10.950928 17.09851 25.80362 17.09851 41.29059l0 0c0 32.24994 -26.136703 58.393677 -58.37796 58.393677l0 0c-32.24124 0 -58.377945 -26.143738 -58.377945 -58.393677z" fill-rule="evenodd"/><path stroke="#033e6a" stroke-width="4.0" stroke-linejoin="round" stroke-linecap="butt" d="m126.028534 340.05286l0 0c0 -32.24997 26.136703 -58.393707 58.377945 -58.393707l0 0c15.482803 0 30.331467 6.1521606 41.27945 17.103119c10.947998 10.950928 17.09851 25.80362 17.09851 41.29059l0 0c0 32.24994 -26.136703 58.393677 -58.37796 58.393677l0 0c-32.24124 0 -58.377945 -26.143738 -58.377945 -58.393677z" fill-rule="evenodd"/><path fill="#033e6a" d="m584.4672 82.38842l0 0c0 -32.24995 26.136719 -58.3937 58.37799 -58.3937l0 0c15.482788 0 30.33142 6.152176 41.27942 17.10312c10.947998 10.950943 17.09851 25.803604 17.09851 41.29058l0 0c0 32.249947 -26.136719 58.3937 -58.37793 58.3937l0 0c-32.241272 0 -58.37799 -26.143753 -58.37799 -58.3937z" fill-rule="evenodd"/><path stroke="#033e6a" stroke-width="4.0" stroke-linejoin="round" stroke-linecap="butt" d="m584.4672 82.38842l0 0c0 -32.24995 26.136719 -58.3937 58.37799 -58.3937l0 0c15.482788 0 30.33142 6.152176 41.27942 17.10312c10.947998 10.950943 17.09851 25.803604 17.09851 41.29058l0 0c0 32.249947 -26.136719 58.3937 -58.37793 58.3937l0 0c-32.241272 0 -58.37799 -26.143753 -58.37799 -58.3937z" fill-rule="evenodd"/><path fill="#033e6a" d="m278.84262 597.7173l0 0c0 -32.24994 26.136719 -58.393738 58.37796 -58.393738l0 0c15.482788 0 30.331451 6.1522217 41.27945 17.10315c10.947998 10.950928 17.09851 25.803589 17.09851 41.29059l0 0c0 32.24994 -26.136688 58.393677 -58.37796 58.393677l0 0c-32.24124 0 -58.37796 -26.143738 -58.37796 -58.393677z" fill-rule="evenodd"/><path stroke="#033e6a" stroke-width="4.0" stroke-linejoin="round" stroke-linecap="butt" d="m278.84262 597.7173l0 0c0 -32.24994 26.136719 -58.393738 58.37796 -58.393738l0 0c15.482788 0 30.331451 6.1522217 41.27945 17.10315c10.947998 10.950928 17.09851 25.803589 17.09851 41.29059l0 0c0 32.24994 -26.136688 58.393677 -58.37796 58.393677l0 0c-32.24124 0 -58.37796 -26.143738 -58.37796 -58.393677z" fill-rule="evenodd"/><path fill="#033e6a" d="m737.28015 340.05286l0 0c0 -32.24997 26.136658 -58.393707 58.37793 -58.393707l0 0c15.482788 0 30.331482 6.1521606 41.27948 17.103119c10.947937 10.950928 17.09851 25.80362 17.09851 41.29059l0 0c0 32.24994 -26.136719 58.393677 -58.37799 58.393677l0 0c-32.241272 0 -58.37793 -26.143738 -58.37793 -58.393677z" fill-rule="evenodd"/><path stroke="#033e6a" stroke-width="4.0" stroke-linejoin="round" stroke-linecap="butt" d="m737.28015 340.05286l0 0c0 -32.24997 26.136658 -58.393707 58.37793 -58.393707l0 0c15.482788 0 30.331482 6.1521606 41.27948 17.103119c10.947937 10.950928 17.09851 25.80362 17.09851 41.29059l0 0c0 32.24994 -26.136719 58.393677 -58.37799 58.393677l0 0c-32.241272 0 -58.37793 -26.143738 -58.37793 -58.393677z" fill-rule="evenodd"/><path fill="#033e6a" d="m584.4707 597.7137l0 0c0 -32.247986 26.13617 -58.390137 58.37671 -58.390137l0 0c15.482483 0 30.330872 6.1517944 41.278625 17.102112c10.947754 10.950256 17.098145 25.802002 17.098145 41.288025l0 0c0 32.247925 -26.13617 58.390076 -58.37677 58.390076l0 0c-32.24054 0 -58.37671 -26.14215 -58.37671 -58.390076z" fill-rule="evenodd"/><path stroke="#033e6a" stroke-width="4.0" stroke-linejoin="round" stroke-linecap="butt" d="m584.4707 597.7137l0 0c0 -32.247986 26.13617 -58.390137 58.37671 -58.390137l0 0c15.482483 0 30.330872 6.1517944 41.278625 17.102112c10.947754 10.950256 17.098145 25.802002 17.098145 41.288025l0 0c0 32.247925 -26.13617 58.390076 -58.37677 58.390076l0 0c-32.24054 0 -58.37671 -26.14215 -58.37671 -58.390076z" fill-rule="evenodd"/><path fill="#033e6a" d="m431.65433 340.05286l0 0c0 -32.24997 26.136719 -58.393707 58.37796 -58.393707l0 0c15.482788 0 30.331482 6.1521606 41.27942 17.103119c10.947998 10.950928 17.09851 25.80362 17.09851 41.29059l0 0c0 32.24994 -26.136658 58.393677 -58.37793 58.393677l0 0c-32.24124 0 -58.37796 -26.143738 -58.37796 -58.393677z" fill-rule="evenodd"/><path stroke="#033e6a" stroke-width="4.0" stroke-linejoin="round" stroke-linecap="butt" d="m431.65433 340.05286l0 0c0 -32.24997 26.136719 -58.393707 58.37796 -58.393707l0 0c15.482788 0 30.331482 6.1521606 41.27942 17.103119c10.947998 10.950928 17.09851 25.80362 17.09851 41.29059l0 0c0 32.24994 -26.136658 58.393677 -58.37793 58.393677l0 0c-32.24124 0 -58.37796 -26.143738 -58.37796 -58.393677z" fill-rule="evenodd"/><path fill="#000000" fill-opacity="0.0" d="m258.80902 468.82318l0 0c21.49289 3.2267761 37.381317 14.482391 44.169952 31.290802c6.788666 16.80838 3.9215088 37.792694 -7.970764 58.33658l-81.03902 -12.166565z" fill-rule="evenodd"/><path fill="#000000" fill-opacity="0.0" d="m258.80902 468.82318l0 0c21.49289 3.2267761 37.381317 14.482391 44.169952 31.290802c6.788666 16.80838 3.9215088 37.792694 -7.970764 58.33658" fill-rule="evenodd"/><path stroke="#033e6a" stroke-width="4.0" stroke-linejoin="round" stroke-linecap="butt" d="m258.80902 468.82318l0 0c21.49289 3.2267761 37.381317 14.482391 44.169952 31.290802c6.788666 16.80838 3.9215088 37.792694 -7.970764 58.33658" fill-rule="evenodd"/><path fill="#000000" fill-opacity="0.0" d="m259.78632 469.01337l0 0c-21.492874 -3.2267456 -37.381287 -14.482391 -44.169937 -31.290771c-6.788666 -16.80838 -3.9214935 -37.792664 7.9707794 -58.33658l81.039 12.166534z" fill-rule="evenodd"/><path fill="#000000" fill-opacity="0.0" d="m259.78632 469.01337l0 0c-21.492874 -3.2267456 -37.381287 -14.482391 -44.169937 -31.290771c-6.788666 -16.80838 -3.9214935 -37.792664 7.9707794 -58.33658" fill-rule="evenodd"/><path stroke="#033e6a" stroke-width="4.0" stroke-linejoin="round" stroke-linecap="butt" d="m259.78632 469.01337l0 0c-21.492874 -3.2267456 -37.381287 -14.482391 -44.169937 -31.290771c-6.788666 -16.80838 -3.9214935 -37.792664 7.9707794 -58.33658" fill-rule="evenodd"/><path fill="#000000" fill-opacity="0.0" d="m195.46747 396.52032l0 0c49.171417 -3.0541687 77.613556 29.486908 63.527313 72.682495l-89.03273 5.53006z" fill-rule="evenodd"/><path fill="#000000" fill-opacity="0.0" d="m195.46747 396.52032l0 0c49.171417 -3.0541687 77.613556 29.486908 63.527313 72.682495" fill-rule="evenodd"/><path stroke="#033e6a" stroke-width="4.0" stroke-linejoin="round" stroke-linecap="butt" d="m195.46747 396.52032l0 0c49.171417 -3.0541687 77.613556 29.486908 63.527313 72.682495" fill-rule="evenodd"/><path fill="#000000" fill-opacity="0.0" d="m319.00183 541.43335l0 0c-23.325684 0.63842773 -42.63678 -7.006714 -53.68506 -21.253479c-11.048294 -14.246735 -12.928757 -33.92813 -5.2276917 -54.714478l87.949585 -2.4071045z" fill-rule="evenodd"/><path fill="#000000" fill-opacity="0.0" d="m319.00183 541.43335l0 0c-23.325684 0.63842773 -42.63678 -7.006714 -53.68506 -21.253479c-11.048294 -14.246735 -12.928757 -33.92813 -5.2276917 -54.714478" fill-rule="evenodd"/><path stroke="#033e6a" stroke-width="4.0" stroke-linejoin="round" stroke-linecap="butt" d="m319.00183 541.43335l0 0c-23.325684 0.63842773 -42.63678 -7.006714 -53.68506 -21.253479c-11.048294 -14.246735 -12.928757 -33.92813 -5.2276917 -54.714478" fill-rule="evenodd"/><path fill="#000000" fill-opacity="0.0" d="m216.52222 394.2163l-4.2641144 2.9671936" fill-rule="evenodd"/><path stroke="#033e6a" stroke-width="4.0" stroke-linejoin="round" stroke-linecap="butt" d="m216.52222 394.2163l-4.2641144 2.9671936" fill-rule="evenodd"/><path fill="#000000" fill-opacity="0.0" d="m224.87376 399.69025l-11.599075 7.4133606" fill-rule="evenodd"/><path stroke="#033e6a" stroke-width="4.0" stroke-linejoin="round" stroke-linecap="butt" d="m224.87376 399.69025l-11.599075 7.4133606" fill-rule="evenodd"/><path fill="#000000" fill-opacity="0.0" d="m235.75873 403.5406l-24.253479 15.191406" fill-rule="evenodd"/><path stroke="#033e6a" stroke-width="4.0" stroke-linejoin="round" stroke-linecap="butt" d="m235.75873 403.5406l-24.253479 15.191406" fill-rule="evenodd"/><path fill="#000000" fill-opacity="0.0" d="m243.49934 409.13495l-30.599945 19.166595" fill-rule="evenodd"/><path stroke="#033e6a" stroke-width="4.0" stroke-linejoin="round" stroke-linecap="butt" d="m243.49934 409.13495l-30.599945 19.166595" fill-rule="evenodd"/><path fill="#000000" fill-opacity="0.0" d="m250.53297 415.2833l-34.997696 21.921173" fill-rule="evenodd"/><path stroke="#033e6a" stroke-width="4.0" stroke-linejoin="round" stroke-linecap="butt" d="m250.53297 415.2833l-34.997696 21.921173" fill-rule="evenodd"/><path fill="#000000" fill-opacity="0.0" d="m255.7418 422.56223l-36.051056 22.580963" fill-rule="evenodd"/><path stroke="#033e6a" stroke-width="4.0" stroke-linejoin="round" stroke-linecap="butt" d="m255.7418 422.56223l-36.051056 22.580963" fill-rule="evenodd"/><path fill="#000000" fill-opacity="0.0" d="m259.59772 430.71533l-34.392 21.54181" fill-rule="evenodd"/><path stroke="#033e6a" stroke-width="4.0" stroke-linejoin="round" stroke-linecap="butt" d="m259.59772 430.71533l-34.392 21.54181" fill-rule="evenodd"/><path fill="#000000" fill-opacity="0.0" d="m261.63324 439.99634l-29.098907 18.22641" fill-rule="evenodd"/><path stroke="#033e6a" stroke-width="4.0" stroke-linejoin="round" stroke-linecap="butt" d="m261.63324 439.99634l-29.098907 18.22641" fill-rule="evenodd"/><path fill="#000000" fill-opacity="0.0" d="m262.15146 450.22568l-20.77742 13.01416" fill-rule="evenodd"/><path stroke="#033e6a" stroke-width="4.0" stroke-linejoin="round" stroke-linecap="butt" d="m262.15146 450.22568l-20.77742 13.01416" fill-rule="evenodd"/><path fill="#000000" fill-opacity="0.0" d="m260.69992 461.69083l-8.795502 5.5091553" fill-rule="evenodd"/><path stroke="#033e6a" stroke-width="4.0" stroke-linejoin="round" stroke-linecap="butt" d="m260.69992 461.69083l-8.795502 5.5091553" fill-rule="evenodd"/><path fill="#000000" fill-opacity="0.0" d="m264.1697 470.07138l-6.7414856 4.222595" fill-rule="evenodd"/><path stroke="#033e6a" stroke-width="4.0" stroke-linejoin="round" stroke-linecap="butt" d="m264.1697 470.07138l-6.7414856 4.222595" fill-rule="evenodd"/><path fill="#000000" fill-opacity="0.0" d="m275.523 473.51608l-19.855728 12.436859" fill-rule="evenodd"/><path stroke="#033e6a" stroke-width="4.0" stroke-linejoin="round" stroke-linecap="butt" d="m275.523 473.51608l-19.855728 12.436859" fill-rule="evenodd"/><path fill="#000000" fill-opacity="0.0" d="m284.67966 478.3367l-28.782913 18.028473" fill-rule="evenodd"/><path stroke="#033e6a" stroke-width="4.0" stroke-linejoin="round" stroke-linecap="butt" d="m284.67966 478.3367l-28.782913 18.028473" fill-rule="evenodd"/><path fill="#000000" fill-opacity="0.0" d="m291.7111 484.4864l-33.496674 20.980988" fill-rule="evenodd"/><path stroke="#033e6a" stroke-width="4.0" stroke-linejoin="round" stroke-linecap="butt" d="m291.7111 484.4864l-33.496674 20.980988" fill-rule="evenodd"/><path fill="#000000" fill-opacity="0.0" d="m297.6835 491.30145l-36.367035 22.77893" fill-rule="evenodd"/><path stroke="#033e6a" stroke-width="4.0" stroke-linejoin="round" stroke-linecap="butt" d="m297.6835 491.30145l-36.367035 22.77893" fill-rule="evenodd"/><path fill="#000000" fill-opacity="0.0" d="m302.1408 499.0635l-35.761383 22.399506" fill-rule="evenodd"/><path stroke="#033e6a" stroke-width="4.0" stroke-linejoin="round" stroke-linecap="butt" d="m302.1408 499.0635l-35.761383 22.399506" fill-rule="evenodd"/><path fill="#000000" fill-opacity="0.0" d="m304.63058 508.05997l-31.679626 19.842865" fill-rule="evenodd"/><path stroke="#033e6a" stroke-width="4.0" stroke-linejoin="round" stroke-linecap="butt" d="m304.63058 508.05997l-31.679626 19.842865" fill-rule="evenodd"/><path fill="#000000" fill-opacity="0.0" d="m306.0573 517.7202l-25.148834 15.752258" fill-rule="evenodd"/><path stroke="#033e6a" stroke-width="4.0" stroke-linejoin="round" stroke-linecap="butt" d="m306.0573 517.7202l-25.148834 15.752258" fill-rule="evenodd"/><path fill="#000000" fill-opacity="0.0" d="m305.5143 528.61633l-14.404633 9.022461" fill-rule="evenodd"/><path stroke="#033e6a" stroke-width="4.0" stroke-linejoin="round" stroke-linecap="butt" d="m305.5143 528.61633l-14.404633 9.022461" fill-rule="evenodd"/><path fill="#000000" fill-opacity="0.0" d="m299.10602 550.62683l14.509949 -9.088501" fill-rule="evenodd"/><path stroke="#033e6a" stroke-width="4.0" stroke-linejoin="round" stroke-linecap="butt" d="m299.10602 550.62683l14.509949 -9.088501" fill-rule="evenodd"/><path fill="#000000" fill-opacity="0.0" d="m719.1866 211.63748l0 0c21.867065 2.9912415 37.924866 14.140244 44.64093 30.994339c6.7160645 16.85408 3.5401611 38.03267 -8.828918 58.876724l-82.44977 -11.278503z" fill-rule="evenodd"/><path fill="#000000" fill-opacity="0.0" d="m719.1866 211.63748l0 0c21.867065 2.9912415 37.924866 14.140244 44.64093 30.994339c6.7160645 16.85408 3.5401611 38.03267 -8.828918 58.876724" fill-rule="evenodd"/><path stroke="#033e6a" stroke-width="4.0" stroke-linejoin="round" stroke-linecap="butt" d="m719.1866 211.63748l0 0c21.867065 2.9912415 37.924866 14.140244 44.64093 30.994339c6.7160645 16.85408 3.5401611 38.03267 -8.828918 58.876724" fill-rule="evenodd"/><path fill="#000000" fill-opacity="0.0" d="m720.1804 211.81728l0 0c-21.867065 -2.9912415 -37.924866 -14.140244 -44.64093 -30.994324c-6.7160645 -16.854095 -3.5402222 -38.032684 8.828918 -58.87673l82.44977 11.278496z" fill-rule="evenodd"/><path fill="#000000" fill-opacity="0.0" d="m720.1804 211.81728l0 0c-21.867065 -2.9912415 -37.924866 -14.140244 -44.64093 -30.994324c-6.7160645 -16.854095 -3.5402222 -38.032684 8.828918 -58.87673" fill-rule="evenodd"/><path stroke="#033e6a" stroke-width="4.0" stroke-linejoin="round" stroke-linecap="butt" d="m720.1804 211.81728l0 0c-21.867065 -2.9912415 -37.924866 -14.140244 -44.64093 -30.994324c-6.7160645 -16.854095 -3.5402222 -38.032684 8.828918 -58.87673" fill-rule="evenodd"/><path fill="#000000" fill-opacity="0.0" d="m655.50116 139.55109l0 0c50.153503 -3.6723633 78.749146 28.772064 63.87018 72.466675l-90.810974 6.649399z" fill-rule="evenodd"/><path fill="#000000" fill-opacity="0.0" d="m655.50116 139.55109l0 0c50.153503 -3.6723633 78.749146 28.772064 63.87018 72.466675" fill-rule="evenodd"/><path stroke="#033e6a" stroke-width="4.0" stroke-linejoin="round" stroke-linecap="butt" d="m655.50116 139.55109l0 0c50.153503 -3.6723633 78.749146 28.772064 63.87018 72.466675" fill-rule="evenodd"/><path fill="#000000" fill-opacity="0.0" d="m779.65906 284.0716l0 0c-23.7818 0.9255066 -43.371704 -6.544098 -54.460205 -20.765533c-11.088501 -14.22142 -12.767273 -34.02977 -4.667053 -55.067413l89.66931 -3.489563z" fill-rule="evenodd"/><path fill="#000000" fill-opacity="0.0" d="m779.65906 284.0716l0 0c-23.7818 0.9255066 -43.371704 -6.544098 -54.460205 -20.765533c-11.088501 -14.22142 -12.767273 -34.02977 -4.667053 -55.067413" fill-rule="evenodd"/><path stroke="#033e6a" stroke-width="4.0" stroke-linejoin="round" stroke-linecap="butt" d="m779.65906 284.0716l0 0c-23.7818 0.9255066 -43.371704 -6.544098 -54.460205 -20.765533c-11.088501 -14.22142 -12.767273 -34.02977 -4.667053 -55.067413" fill-rule="evenodd"/><path fill="#000000" fill-opacity="0.0" d="m676.98846 136.9748l-4.381958 3.041336" fill-rule="evenodd"/><path stroke="#033e6a" stroke-width="4.0" stroke-linejoin="round" stroke-linecap="butt" d="m676.98846 136.9748l-4.381958 3.041336" fill-rule="evenodd"/><path fill="#000000" fill-opacity="0.0" d="m685.4344 142.38931l-11.911621 7.610092" fill-rule="evenodd"/><path stroke="#033e6a" stroke-width="4.0" stroke-linejoin="round" stroke-linecap="butt" d="m685.4344 142.38931l-11.911621 7.610092" fill-rule="evenodd"/><path fill="#000000" fill-opacity="0.0" d="m696.48206 146.13722l-24.90326 15.600433" fill-rule="evenodd"/><path stroke="#033e6a" stroke-width="4.0" stroke-linejoin="round" stroke-linecap="butt" d="m696.48206 146.13722l-24.90326 15.600433" fill-rule="evenodd"/><path fill="#000000" fill-opacity="0.0" d="m704.3039 151.6805l-31.419739 19.682632" fill-rule="evenodd"/><path stroke="#033e6a" stroke-width="4.0" stroke-linejoin="round" stroke-linecap="butt" d="m704.3039 151.6805l-31.419739 19.682632" fill-rule="evenodd"/><path fill="#000000" fill-opacity="0.0" d="m711.39844 157.79047l-35.935364 22.511383" fill-rule="evenodd"/><path stroke="#033e6a" stroke-width="4.0" stroke-linejoin="round" stroke-linecap="butt" d="m711.39844 157.79047l-35.935364 22.511383" fill-rule="evenodd"/><path fill="#000000" fill-opacity="0.0" d="m716.61945 165.06177l-37.016907 23.18892" fill-rule="evenodd"/><path stroke="#033e6a" stroke-width="4.0" stroke-linejoin="round" stroke-linecap="butt" d="m716.61945 165.06177l-37.016907 23.18892" fill-rule="evenodd"/><path fill="#000000" fill-opacity="0.0" d="m720.4509 173.23024l-35.313416 22.12178" fill-rule="evenodd"/><path stroke="#033e6a" stroke-width="4.0" stroke-linejoin="round" stroke-linecap="butt" d="m720.4509 173.23024l-35.313416 22.12178" fill-rule="evenodd"/><path fill="#000000" fill-opacity="0.0" d="m722.41345 182.55719l-29.87854 18.717148" fill-rule="evenodd"/><path stroke="#033e6a" stroke-width="4.0" stroke-linejoin="round" stroke-linecap="butt" d="m722.41345 182.55719l-29.87854 18.717148" fill-rule="evenodd"/><path fill="#000000" fill-opacity="0.0" d="m722.818 192.85806l-21.334045 13.364548" fill-rule="evenodd"/><path stroke="#033e6a" stroke-width="4.0" stroke-linejoin="round" stroke-linecap="butt" d="m722.818 192.85806l-21.334045 13.364548" fill-rule="evenodd"/><path fill="#000000" fill-opacity="0.0" d="m721.2 204.42798l-9.031128 5.657486" fill-rule="evenodd"/><path stroke="#033e6a" stroke-width="4.0" stroke-linejoin="round" stroke-linecap="butt" d="m721.2 204.42798l-9.031128 5.657486" fill-rule="evenodd"/><path fill="#000000" fill-opacity="0.0" d="m724.63525 212.8303l-6.922119 4.336273" fill-rule="evenodd"/><path stroke="#033e6a" stroke-width="4.0" stroke-linejoin="round" stroke-linecap="butt" d="m724.63525 212.8303l-6.922119 4.336273" fill-rule="evenodd"/><path fill="#000000" fill-opacity="0.0" d="m736.16516 216.16383l-20.387695 12.771698" fill-rule="evenodd"/><path stroke="#033e6a" stroke-width="4.0" stroke-linejoin="round" stroke-linecap="butt" d="m736.16516 216.16383l-20.387695 12.771698" fill-rule="evenodd"/><path fill="#000000" fill-opacity="0.0" d="m745.4396 220.91032l-29.554016 18.51387" fill-rule="evenodd"/><path stroke="#033e6a" stroke-width="4.0" stroke-linejoin="round" stroke-linecap="butt" d="m745.4396 220.91032l-29.554016 18.51387" fill-rule="evenodd"/><path fill="#000000" fill-opacity="0.0" d="m752.53186 227.02171l-34.394104 21.545883" fill-rule="evenodd"/><path stroke="#033e6a" stroke-width="4.0" stroke-linejoin="round" stroke-linecap="butt" d="m752.53186 227.02171l-34.394104 21.545883" fill-rule="evenodd"/><path fill="#000000" fill-opacity="0.0" d="m758.53674 233.81636l-37.34137 23.392166" fill-rule="evenodd"/><path stroke="#033e6a" stroke-width="4.0" stroke-linejoin="round" stroke-linecap="butt" d="m758.53674 233.81636l-37.34137 23.392166" fill-rule="evenodd"/><path fill="#000000" fill-opacity="0.0" d="m762.9859 241.5835l-36.71942 23.002594" fill-rule="evenodd"/><path stroke="#033e6a" stroke-width="4.0" stroke-linejoin="round" stroke-linecap="butt" d="m762.9859 241.5835l-36.71942 23.002594" fill-rule="evenodd"/><path fill="#000000" fill-opacity="0.0" d="m765.41486 250.61827l-32.52838 20.377121" fill-rule="evenodd"/><path stroke="#033e6a" stroke-width="4.0" stroke-linejoin="round" stroke-linecap="butt" d="m765.41486 250.61827l-32.52838 20.377121" fill-rule="evenodd"/><path fill="#000000" fill-opacity="0.0" d="m766.75226 260.33475l-25.82257 16.176361" fill-rule="evenodd"/><path stroke="#033e6a" stroke-width="4.0" stroke-linejoin="round" stroke-linecap="butt" d="m766.75226 260.33475l-25.82257 16.176361" fill-rule="evenodd"/><path fill="#000000" fill-opacity="0.0" d="m766.06714 271.32028l-14.790527 9.265411" fill-rule="evenodd"/><path stroke="#033e6a" stroke-width="4.0" stroke-linejoin="round" stroke-linecap="butt" d="m766.06714 271.32028l-14.790527 9.265411" fill-rule="evenodd"/><path fill="#000000" fill-opacity="0.0" d="m759.2697 293.5757l14.898682 -9.33316" fill-rule="evenodd"/><path stroke="#033e6a" stroke-width="4.0" stroke-linejoin="round" stroke-linecap="butt" d="m759.2697 293.5757l14.898682 -9.33316" fill-rule="evenodd"/><path fill="#000000" fill-opacity="0.0" d="m720.61316 468.47525l0 0c6.805725 20.807068 3.8500977 40.187897 -8.216614 53.878937c-12.06665 13.69104 -32.25598 20.57074 -56.126587 19.125732l-25.660828 -78.453156z" fill-rule="evenodd"/><path fill="#000000" fill-opacity="0.0" d="m720.61316 468.47525l0 0c6.805725 20.807068 3.8500977 40.187897 -8.216614 53.878937c-12.06665 13.69104 -32.25598 20.57074 -56.126587 19.125732" fill-rule="evenodd"/><path stroke="#033e6a" stroke-width="4.0" stroke-linejoin="round" stroke-linecap="butt" d="m720.61316 468.47525l0 0c6.805725 20.807068 3.8500977 40.187897 -8.216614 53.878937c-12.06665 13.69104 -32.25598 20.57074 -56.126587 19.125732" fill-rule="evenodd"/><path fill="#000000" fill-opacity="0.0" d="m720.88354 469.44095l0 0c-6.805725 -20.807068 -3.8500977 -40.187897 8.216614 -53.878937c12.06665 -13.69104 32.25598 -20.57077 56.126587 -19.125763l25.660828 78.453156z" fill-rule="evenodd"/><path fill="#000000" fill-opacity="0.0" d="m720.88354 469.44095l0 0c-6.805725 -20.807068 -3.8500977 -40.187897 8.216614 -53.878937c12.06665 -13.69104 32.25598 -20.57077 56.126587 -19.125763" fill-rule="evenodd"/><path stroke="#033e6a" stroke-width="4.0" stroke-linejoin="round" stroke-linecap="butt" d="m720.88354 469.44095l0 0c-6.805725 -20.807068 -3.8500977 -40.187897 8.216614 -53.878937c12.06665 -13.69104 32.25598 -20.57077 56.126587 -19.125763" fill-rule="evenodd"/><path fill="#000000" fill-opacity="0.0" d="m757.0942 378.84274l0 0c24.966736 42.89691 8.518188 83.17825 -36.73889 89.97092l-45.2063 -77.67169z" fill-rule="evenodd"/><path fill="#000000" fill-opacity="0.0" d="m757.0942 378.84274l0 0c24.966736 42.89691 8.518188 83.17825 -36.73889 89.97092" fill-rule="evenodd"/><path stroke="#033e6a" stroke-width="4.0" stroke-linejoin="round" stroke-linecap="butt" d="m757.0942 378.84274l0 0c24.966736 42.89691 8.518188 83.17825 -36.73889 89.97092" fill-rule="evenodd"/><path fill="#000000" fill-opacity="0.0" d="m682.43286 555.41113l0 0c-11.113953 -20.71466 -12.955627 -41.549316 -5.119995 -57.920746c7.8356323 -16.37143 24.706787 -26.938477 46.901978 -29.376556l41.90503 78.10449z" fill-rule="evenodd"/><path fill="#000000" fill-opacity="0.0" d="m682.43286 555.41113l0 0c-11.113953 -20.71466 -12.955627 -41.549316 -5.119995 -57.920746c7.8356323 -16.37143 24.706787 -26.938477 46.901978 -29.376556" fill-rule="evenodd"/><path stroke="#033e6a" stroke-width="4.0" stroke-linejoin="round" stroke-linecap="butt" d="m682.43286 555.41113l0 0c-11.113953 -20.71466 -12.955627 -41.549316 -5.119995 -57.920746c7.8356323 -16.37143 24.706787 -26.938477 46.901978 -29.376556" fill-rule="evenodd"/><path fill="#000000" fill-opacity="0.0" d="m768.6817 396.76163l-4.5982056 -2.5015564" fill-rule="evenodd"/><path stroke="#033e6a" stroke-width="4.0" stroke-linejoin="round" stroke-linecap="butt" d="m768.6817 396.76163l-4.5982056 -2.5015564" fill-rule="evenodd"/><path fill="#000000" fill-opacity="0.0" d="m767.5265 406.74945l-11.915588 -7.1013184" fill-rule="evenodd"/><path stroke="#033e6a" stroke-width="4.0" stroke-linejoin="round" stroke-linecap="butt" d="m767.5265 406.74945l-11.915588 -7.1013184" fill-rule="evenodd"/><path fill="#000000" fill-opacity="0.0" d="m768.9778 418.2863l-24.636353 -14.988373" fill-rule="evenodd"/><path stroke="#033e6a" stroke-width="4.0" stroke-linejoin="round" stroke-linecap="butt" d="m768.9778 418.2863l-24.636353 -14.988373" fill-rule="evenodd"/><path fill="#000000" fill-opacity="0.0" d="m767.4381 427.77832l-31.083069 -18.9104" fill-rule="evenodd"/><path stroke="#033e6a" stroke-width="4.0" stroke-linejoin="round" stroke-linecap="butt" d="m767.4381 427.77832l-31.083069 -18.9104" fill-rule="evenodd"/><path fill="#000000" fill-opacity="0.0" d="m765.08026 436.88354l-35.550232 -21.628174" fill-rule="evenodd"/><path stroke="#033e6a" stroke-width="4.0" stroke-linejoin="round" stroke-linecap="butt" d="m765.08026 436.88354l-35.550232 -21.628174" fill-rule="evenodd"/><path fill="#000000" fill-opacity="0.0" d="m760.8799 444.8555l-36.62024 -22.279144" fill-rule="evenodd"/><path stroke="#033e6a" stroke-width="4.0" stroke-linejoin="round" stroke-linecap="butt" d="m760.8799 444.8555l-36.62024 -22.279144" fill-rule="evenodd"/><path fill="#000000" fill-opacity="0.0" d="m755.2812 452.00342l-34.934998 -21.253876" fill-rule="evenodd"/><path stroke="#033e6a" stroke-width="4.0" stroke-linejoin="round" stroke-linecap="butt" d="m755.2812 452.00342l-34.934998 -21.253876" fill-rule="evenodd"/><path fill="#000000" fill-opacity="0.0" d="m747.8444 458.02078l-29.55835 -17.982788" fill-rule="evenodd"/><path stroke="#033e6a" stroke-width="4.0" stroke-linejoin="round" stroke-linecap="butt" d="m747.8444 458.02078l-29.55835 -17.982788" fill-rule="evenodd"/><path fill="#000000" fill-opacity="0.0" d="m738.8682 463.09955l-21.105408 -12.84021" fill-rule="evenodd"/><path stroke="#033e6a" stroke-width="4.0" stroke-linejoin="round" stroke-linecap="butt" d="m738.8682 463.09955l-21.105408 -12.84021" fill-rule="evenodd"/><path fill="#000000" fill-opacity="0.0" d="m727.8894 466.96198l-8.934387 -5.4355164" fill-rule="evenodd"/><path stroke="#033e6a" stroke-width="4.0" stroke-linejoin="round" stroke-linecap="butt" d="m727.8894 466.96198l-8.934387 -5.4355164" fill-rule="evenodd"/><path fill="#000000" fill-opacity="0.0" d="m721.91144 473.86478l-6.8479004 -4.166168" fill-rule="evenodd"/><path stroke="#033e6a" stroke-width="4.0" stroke-linejoin="round" stroke-linecap="butt" d="m721.91144 473.86478l-6.8479004 -4.166168" fill-rule="evenodd"/><path fill="#000000" fill-opacity="0.0" d="m723.9396 485.64044l-20.16919 -12.27063" fill-rule="evenodd"/><path stroke="#033e6a" stroke-width="4.0" stroke-linejoin="round" stroke-linecap="butt" d="m723.9396 485.64044l-20.16919 -12.27063" fill-rule="evenodd"/><path fill="#000000" fill-opacity="0.0" d="m723.7363 496.05856l-29.237305 -17.787506" fill-rule="evenodd"/><path stroke="#033e6a" stroke-width="4.0" stroke-linejoin="round" stroke-linecap="butt" d="m723.7363 496.05856l-29.237305 -17.787506" fill-rule="evenodd"/><path fill="#000000" fill-opacity="0.0" d="m721.3762 505.16245l-34.02545 -20.700562" fill-rule="evenodd"/><path stroke="#033e6a" stroke-width="4.0" stroke-linejoin="round" stroke-linecap="butt" d="m721.3762 505.16245l-34.02545 -20.700562" fill-rule="evenodd"/><path fill="#000000" fill-opacity="0.0" d="m717.93854 513.6128l-36.941162 -22.474426" fill-rule="evenodd"/><path stroke="#033e6a" stroke-width="4.0" stroke-linejoin="round" stroke-linecap="butt" d="m717.93854 513.6128l-36.941162 -22.474426" fill-rule="evenodd"/><path fill="#000000" fill-opacity="0.0" d="m712.9637 521.12585l-36.325928 -22.100128" fill-rule="evenodd"/><path stroke="#033e6a" stroke-width="4.0" stroke-linejoin="round" stroke-linecap="butt" d="m712.9637 521.12585l-36.325928 -22.100128" fill-rule="evenodd"/><path fill="#000000" fill-opacity="0.0" d="m705.98834 527.42395l-32.17975 -19.577637" fill-rule="evenodd"/><path stroke="#033e6a" stroke-width="4.0" stroke-linejoin="round" stroke-linecap="butt" d="m705.98834 527.42395l-32.17975 -19.577637" fill-rule="evenodd"/><path fill="#000000" fill-opacity="0.0" d="m697.93506 533.06415l-25.545898 -15.541687" fill-rule="evenodd"/><path stroke="#033e6a" stroke-width="4.0" stroke-linejoin="round" stroke-linecap="butt" d="m697.93506 533.06415l-25.545898 -15.541687" fill-rule="evenodd"/><path fill="#000000" fill-opacity="0.0" d="m687.8791 537.48804l-14.632019 -8.9019165" fill-rule="evenodd"/><path stroke="#033e6a" stroke-width="4.0" stroke-linejoin="round" stroke-linecap="butt" d="m687.8791 537.48804l-14.632019 -8.9019165" fill-rule="evenodd"/><path fill="#000000" fill-opacity="0.0" d="m665.16583 541.642l14.739014 8.96698" fill-rule="evenodd"/><path stroke="#033e6a" stroke-width="4.0" stroke-linejoin="round" stroke-linecap="butt" d="m665.16583 541.642l14.739014 8.96698" fill-rule="evenodd"/><path fill="#000000" fill-opacity="0.0" d="m262.52405 212.43776l0 0c6.4854736 20.797989 3.316986 40.286148 -8.808441 54.177322c-12.125427 13.891144 -32.21454 21.047424 -55.84796 19.8945l-24.453506 -78.418915z" fill-rule="evenodd"/><path fill="#000000" fill-opacity="0.0" d="m262.52405 212.43776l0 0c6.4854736 20.797989 3.316986 40.286148 -8.808441 54.177322c-12.125427 13.891144 -32.21454 21.047424 -55.84796 19.8945" fill-rule="evenodd"/><path stroke="#033e6a" stroke-width="4.0" stroke-linejoin="round" stroke-linecap="butt" d="m262.52405 212.43776l0 0c6.4854736 20.797989 3.316986 40.286148 -8.808441 54.177322c-12.125427 13.891144 -32.21454 21.047424 -55.84796 19.8945" fill-rule="evenodd"/><path fill="#000000" fill-opacity="0.0" d="m262.77994 213.4036l0 0c-6.4854736 -20.797989 -3.316986 -40.286148 8.808441 -54.177307c12.125427 -13.891159 32.21454 -21.04744 55.84796 -19.894516l24.453522 78.418915z" fill-rule="evenodd"/><path fill="#000000" fill-opacity="0.0" d="m262.77994 213.4036l0 0c-6.4854736 -20.797989 -3.316986 -40.286148 8.808441 -54.177307c12.125427 -13.891159 32.21454 -21.04744 55.84796 -19.894516" fill-rule="evenodd"/><path stroke="#033e6a" stroke-width="4.0" stroke-linejoin="round" stroke-linecap="butt" d="m262.77994 213.4036l0 0c-6.4854736 -20.797989 -3.316986 -40.286148 8.808441 -54.177307c12.125427 -13.891159 32.21454 -21.04744 55.84796 -19.894516" fill-rule="evenodd"/><path fill="#000000" fill-opacity="0.0" d="m299.78006 122.02471l0 0c24.206146 42.74195 7.40979 83.37475 -37.515717 90.75591l-43.8291 -77.39114z" fill-rule="evenodd"/><path fill="#000000" fill-opacity="0.0" d="m299.78006 122.02471l0 0c24.206146 42.74195 7.40979 83.37475 -37.515717 90.75591" fill-rule="evenodd"/><path stroke="#033e6a" stroke-width="4.0" stroke-linejoin="round" stroke-linecap="butt" d="m299.78006 122.02471l0 0c24.206146 42.74195 7.40979 83.37475 -37.515717 90.75591" fill-rule="evenodd"/><path fill="#000000" fill-opacity="0.0" d="m223.61766 300.16553l0 0c-10.755264 -20.65152 -12.322006 -41.539093 -4.3555756 -58.067673c7.966446 -16.528595 24.813507 -27.344269 46.835022 -30.067703l40.552795 77.86667z" fill-rule="evenodd"/><path fill="#000000" fill-opacity="0.0" d="m223.61766 300.16553l0 0c-10.755264 -20.65152 -12.322006 -41.539093 -4.3555756 -58.067673c7.966446 -16.528595 24.813507 -27.344269 46.835022 -30.067703" fill-rule="evenodd"/><path stroke="#033e6a" stroke-width="4.0" stroke-linejoin="round" stroke-linecap="butt" d="m223.61766 300.16553l0 0c-10.755264 -20.65152 -12.322006 -41.539093 -4.3555756 -58.067673c7.966446 -16.528595 24.813507 -27.344269 46.835022 -30.067703" fill-rule="evenodd"/><path fill="#000000" fill-opacity="0.0" d="m311.03925 139.86444l-4.524994 -2.4533997" fill-rule="evenodd"/><path stroke="#033e6a" stroke-width="4.0" stroke-linejoin="round" stroke-linecap="butt" d="m311.03925 139.86444l-4.524994 -2.4533997" fill-rule="evenodd"/><path fill="#000000" fill-opacity="0.0" d="m309.77097 149.90297l-11.718201 -6.9786987" fill-rule="evenodd"/><path stroke="#033e6a" stroke-width="4.0" stroke-linejoin="round" stroke-linecap="butt" d="m309.77097 149.90297l-11.718201 -6.9786987" fill-rule="evenodd"/><path fill="#000000" fill-opacity="0.0" d="m311.06604 161.46371l-24.224457 -14.736008" fill-rule="evenodd"/><path stroke="#033e6a" stroke-width="4.0" stroke-linejoin="round" stroke-linecap="butt" d="m311.06604 161.46371l-24.224457 -14.736008" fill-rule="evenodd"/><path fill="#000000" fill-opacity="0.0" d="m309.42294 171.00946l-30.563324 -18.59201" fill-rule="evenodd"/><path stroke="#033e6a" stroke-width="4.0" stroke-linejoin="round" stroke-linecap="butt" d="m309.42294 171.00946l-30.563324 -18.59201" fill-rule="evenodd"/><path fill="#000000" fill-opacity="0.0" d="m306.97397 180.17717l-34.95584 -21.263992" fill-rule="evenodd"/><path stroke="#033e6a" stroke-width="4.0" stroke-linejoin="round" stroke-linecap="butt" d="m306.97397 180.17717l-34.95584 -21.263992" fill-rule="evenodd"/><path fill="#000000" fill-opacity="0.0" d="m302.71344 188.23045l-36.007935 -21.903992" fill-rule="evenodd"/><path stroke="#033e6a" stroke-width="4.0" stroke-linejoin="round" stroke-linecap="butt" d="m302.71344 188.23045l-36.007935 -21.903992" fill-rule="evenodd"/><path fill="#000000" fill-opacity="0.0" d="m297.0776 195.47414l-34.35086 -20.895996" fill-rule="evenodd"/><path stroke="#033e6a" stroke-width="4.0" stroke-linejoin="round" stroke-linecap="butt" d="m297.0776 195.47414l-34.35086 -20.895996" fill-rule="evenodd"/><path fill="#000000" fill-opacity="0.0" d="m289.63464 201.60603l-29.064117 -17.679993" fill-rule="evenodd"/><path stroke="#033e6a" stroke-width="4.0" stroke-linejoin="round" stroke-linecap="butt" d="m289.63464 201.60603l-29.064117 -17.679993" fill-rule="evenodd"/><path fill="#000000" fill-opacity="0.0" d="m280.678 206.8151l-20.752563 -12.623993" fill-rule="evenodd"/><path stroke="#033e6a" stroke-width="4.0" stroke-linejoin="round" stroke-linecap="butt" d="m280.678 206.8151l-20.752563 -12.623993" fill-rule="evenodd"/><path fill="#000000" fill-opacity="0.0" d="m269.75217 210.82834l-8.784973 -5.3440094" fill-rule="evenodd"/><path stroke="#033e6a" stroke-width="4.0" stroke-linejoin="round" stroke-linecap="butt" d="m269.75217 210.82834l-8.784973 -5.3440094" fill-rule="evenodd"/><path fill="#000000" fill-opacity="0.0" d="m263.7436 217.83072l-6.7333984 -4.095993" fill-rule="evenodd"/><path stroke="#033e6a" stroke-width="4.0" stroke-linejoin="round" stroke-linecap="butt" d="m263.7436 217.83072l-6.7333984 -4.095993" fill-rule="evenodd"/><path fill="#000000" fill-opacity="0.0" d="m265.6073 229.62396l-19.832 -12.063995" fill-rule="evenodd"/><path stroke="#033e6a" stroke-width="4.0" stroke-linejoin="round" stroke-linecap="butt" d="m265.6073 229.62396l-19.832 -12.063995" fill-rule="evenodd"/><path fill="#000000" fill-opacity="0.0" d="m265.27692 240.08253l-28.74849 -17.488007" fill-rule="evenodd"/><path stroke="#033e6a" stroke-width="4.0" stroke-linejoin="round" stroke-linecap="butt" d="m265.27692 240.08253l-28.74849 -17.488007" fill-rule="evenodd"/><path fill="#000000" fill-opacity="0.0" d="m262.82574 249.24892l-33.45662 -20.35199" fill-rule="evenodd"/><path stroke="#033e6a" stroke-width="4.0" stroke-linejoin="round" stroke-linecap="butt" d="m262.82574 249.24892l-33.45662 -20.35199" fill-rule="evenodd"/><path fill="#000000" fill-opacity="0.0" d="m259.31497 257.77283l-36.323563 -22.096008" fill-rule="evenodd"/><path stroke="#033e6a" stroke-width="4.0" stroke-linejoin="round" stroke-linecap="butt" d="m259.31497 257.77283l-36.323563 -22.096008" fill-rule="evenodd"/><path fill="#000000" fill-opacity="0.0" d="m254.29272 265.3752l-35.718597 -21.727997" fill-rule="evenodd"/><path stroke="#033e6a" stroke-width="4.0" stroke-linejoin="round" stroke-linecap="butt" d="m254.29272 265.3752l-35.718597 -21.727997" fill-rule="evenodd"/><path fill="#000000" fill-opacity="0.0" d="m247.30347 271.7831l-31.641739 -19.247986" fill-rule="evenodd"/><path stroke="#033e6a" stroke-width="4.0" stroke-linejoin="round" stroke-linecap="butt" d="m247.30347 271.7831l-31.641739 -19.247986" fill-rule="evenodd"/><path fill="#000000" fill-opacity="0.0" d="m239.25427 277.54416l-25.11876 -15.279999" fill-rule="evenodd"/><path stroke="#033e6a" stroke-width="4.0" stroke-linejoin="round" stroke-linecap="butt" d="m239.25427 277.54416l-25.11876 -15.279999" fill-rule="evenodd"/><path fill="#000000" fill-opacity="0.0" d="m229.23587 282.1094l-14.38739 -8.751984" fill-rule="evenodd"/><path stroke="#033e6a" stroke-width="4.0" stroke-linejoin="round" stroke-linecap="butt" d="m229.23587 282.1094l-14.38739 -8.751984" fill-rule="evenodd"/><path fill="#000000" fill-opacity="0.0" d="m206.67976 286.56146l14.4925995 8.8160095" fill-rule="evenodd"/><path stroke="#033e6a" stroke-width="4.0" stroke-linejoin="round" stroke-linecap="butt" d="m206.67976 286.56146l14.4925995 8.8160095" fill-rule="evenodd"/><path fill="#000000" fill-opacity="0.0" d="m491.10495 597.49585l0 0c14.745911 -16.1604 33.48416 -23.496521 52.09256 -20.394348c18.608398 3.1021729 35.562622 16.388428 47.132996 36.935974l-55.599487 60.933044z" fill-rule="evenodd"/><path fill="#000000" fill-opacity="0.0" d="m491.10495 597.49585l0 0c14.745911 -16.1604 33.48416 -23.496521 52.09256 -20.394348c18.608398 3.1021729 35.562622 16.388428 47.132996 36.935974" fill-rule="evenodd"/><path stroke="#033e6a" stroke-width="4.0" stroke-linejoin="round" stroke-linecap="butt" d="m491.10495 597.49585l0 0c14.745911 -16.1604 33.48416 -23.496521 52.09256 -20.394348c18.608398 3.1021729 35.562622 16.388428 47.132996 36.935974" fill-rule="evenodd"/><path fill="#000000" fill-opacity="0.0" d="m491.81384 596.7836l0 0c-14.745911 16.1604 -33.48416 23.496521 -52.09256 20.394348c-18.608398 -3.1021729 -35.562622 -16.388428 -47.132996 -36.935974l55.599487 -60.933044z" fill-rule="evenodd"/><path fill="#000000" fill-opacity="0.0" d="m491.81384 596.7836l0 0c-14.745911 16.1604 -33.48416 23.496521 -52.09256 20.394348c-18.608398 -3.1021729 -35.562622 -16.388428 -47.132996 -36.935974" fill-rule="evenodd"/><path stroke="#033e6a" stroke-width="4.0" stroke-linejoin="round" stroke-linecap="butt" d="m491.81384 596.7836l0 0c-14.745911 16.1604 -33.48416 23.496521 -52.09256 20.394348c-18.608398 -3.1021729 -35.562622 -16.388428 -47.132996 -36.935974" fill-rule="evenodd"/><path fill="#000000" fill-opacity="0.0" d="m392.16528 612.485l0 0c24.514435 -42.39618 69.00745 -49.08777 99.3779 -14.945984l-44.38736 76.76514z" fill-rule="evenodd"/><path fill="#000000" fill-opacity="0.0" d="m392.16528 612.485l0 0c24.514435 -42.39618 69.00745 -49.08777 99.3779 -14.945984" fill-rule="evenodd"/><path stroke="#033e6a" stroke-width="4.0" stroke-linejoin="round" stroke-linecap="butt" d="m392.16528 612.485l0 0c24.514435 -42.39618 69.00745 -49.08777 99.3779 -14.945984" fill-rule="evenodd"/><path fill="#000000" fill-opacity="0.0" d="m588.5735 585.2797l0 0c-12.345093 19.69043 -29.787415 31.743713 -48.48987 33.508118c-18.702393 1.7644653 -37.132965 -6.904419 -51.23709 -24.099548l46.54727 -74.24304z" fill-rule="evenodd"/><path fill="#000000" fill-opacity="0.0" d="m588.5735 585.2797l0 0c-12.345093 19.69043 -29.787415 31.743713 -48.48987 33.508118c-18.702393 1.7644653 -37.132965 -6.904419 -51.23709 -24.099548" fill-rule="evenodd"/><path stroke="#033e6a" stroke-width="4.0" stroke-linejoin="round" stroke-linecap="butt" d="m588.5735 585.2797l0 0c-12.345093 19.69043 -29.787415 31.743713 -48.48987 33.508118c-18.702393 1.7644653 -37.132965 -6.904419 -51.23709 -24.099548" fill-rule="evenodd"/><path fill="#000000" fill-opacity="0.0" d="m401.7819 593.81354l0.2618103 5.0811157" fill-rule="evenodd"/><path stroke="#033e6a" stroke-width="4.0" stroke-linejoin="round" stroke-linecap="butt" d="m401.7819 593.81354l0.2618103 5.0811157" fill-rule="evenodd"/><path fill="#000000" fill-opacity="0.0" d="m411.24048 589.7274l0.13092041 13.479553" fill-rule="evenodd"/><path stroke="#033e6a" stroke-width="4.0" stroke-linejoin="round" stroke-linecap="butt" d="m411.24048 589.7274l0.13092041 13.479553" fill-rule="evenodd"/><path fill="#000000" fill-opacity="0.0" d="m420.6666 582.69495l0 28.024475" fill-rule="evenodd"/><path stroke="#033e6a" stroke-width="4.0" stroke-linejoin="round" stroke-linecap="butt" d="m420.6666 582.69495l0 28.024475" fill-rule="evenodd"/><path fill="#000000" fill-opacity="0.0" d="m429.89352 579.17847l0 35.357727" fill-rule="evenodd"/><path stroke="#033e6a" stroke-width="4.0" stroke-linejoin="round" stroke-linecap="butt" d="m429.89352 579.17847l0 35.357727" fill-rule="evenodd"/><path fill="#000000" fill-opacity="0.0" d="m439.2186 576.5367l0 40.43927" fill-rule="evenodd"/><path stroke="#033e6a" stroke-width="4.0" stroke-linejoin="round" stroke-linecap="butt" d="m439.2186 576.5367l0 40.43927" fill-rule="evenodd"/><path fill="#000000" fill-opacity="0.0" d="m448.53278 575.997l0 41.656433" fill-rule="evenodd"/><path stroke="#033e6a" stroke-width="4.0" stroke-linejoin="round" stroke-linecap="butt" d="m448.53278 575.997l0 41.656433" fill-rule="evenodd"/><path fill="#000000" fill-opacity="0.0" d="m457.8706 577.0345l0 39.73944" fill-rule="evenodd"/><path stroke="#033e6a" stroke-width="4.0" stroke-linejoin="round" stroke-linecap="butt" d="m457.8706 577.0345l0 39.73944" fill-rule="evenodd"/><path fill="#000000" fill-opacity="0.0" d="m467.1975 580.169l0 33.623352" fill-rule="evenodd"/><path stroke="#033e6a" stroke-width="4.0" stroke-linejoin="round" stroke-linecap="butt" d="m467.1975 580.169l0 33.623352" fill-rule="evenodd"/><path fill="#000000" fill-opacity="0.0" d="m476.52258 585.0557l0 24.007935" fill-rule="evenodd"/><path stroke="#033e6a" stroke-width="4.0" stroke-linejoin="round" stroke-linecap="butt" d="m476.52258 585.0557l0 24.007935" fill-rule="evenodd"/><path fill="#000000" fill-opacity="0.0" d="m485.8495 592.2195l0 10.163025" fill-rule="evenodd"/><path stroke="#033e6a" stroke-width="4.0" stroke-linejoin="round" stroke-linecap="butt" d="m485.8495 592.2195l0 10.163025" fill-rule="evenodd"/><path fill="#000000" fill-opacity="0.0" d="m495.1746 593.6956l0 7.789673" fill-rule="evenodd"/><path stroke="#033e6a" stroke-width="4.0" stroke-linejoin="round" stroke-linecap="butt" d="m495.1746 593.6956l0 7.789673" fill-rule="evenodd"/><path fill="#000000" fill-opacity="0.0" d="m504.5015 586.0636l0 22.942993" fill-rule="evenodd"/><path stroke="#033e6a" stroke-width="4.0" stroke-linejoin="round" stroke-linecap="butt" d="m504.5015 586.0636l0 22.942993" fill-rule="evenodd"/><path fill="#000000" fill-opacity="0.0" d="m513.82837 580.9698l0 33.25818" fill-rule="evenodd"/><path stroke="#033e6a" stroke-width="4.0" stroke-linejoin="round" stroke-linecap="butt" d="m513.82837 580.9698l0 33.25818" fill-rule="evenodd"/><path fill="#000000" fill-opacity="0.0" d="m523.1535 578.33057l0 38.704834" fill-rule="evenodd"/><path stroke="#033e6a" stroke-width="4.0" stroke-linejoin="round" stroke-linecap="butt" d="m523.1535 578.33057l0 38.704834" fill-rule="evenodd"/><path fill="#000000" fill-opacity="0.0" d="m532.4804 576.916l0 42.021545" fill-rule="evenodd"/><path stroke="#033e6a" stroke-width="4.0" stroke-linejoin="round" stroke-linecap="butt" d="m532.4804 576.916l0 42.021545" fill-rule="evenodd"/><path fill="#000000" fill-opacity="0.0" d="m541.8055 577.25116l0 41.321655" fill-rule="evenodd"/><path stroke="#033e6a" stroke-width="4.0" stroke-linejoin="round" stroke-linecap="butt" d="m541.8055 577.25116l0 41.321655" fill-rule="evenodd"/><path fill="#000000" fill-opacity="0.0" d="m551.1324 579.8608l0 36.605286" fill-rule="evenodd"/><path stroke="#033e6a" stroke-width="4.0" stroke-linejoin="round" stroke-linecap="butt" d="m551.1324 579.8608l0 36.605286" fill-rule="evenodd"/><path fill="#000000" fill-opacity="0.0" d="m560.45746 583.6977l0 29.059082" fill-rule="evenodd"/><path stroke="#033e6a" stroke-width="4.0" stroke-linejoin="round" stroke-linecap="butt" d="m560.45746 583.6977l0 29.059082" fill-rule="evenodd"/><path fill="#000000" fill-opacity="0.0" d="m569.78436 589.81165l0 16.644287" fill-rule="evenodd"/><path stroke="#033e6a" stroke-width="4.0" stroke-linejoin="round" stroke-linecap="butt" d="m569.78436 589.81165l0 16.644287" fill-rule="evenodd"/><path fill="#000000" fill-opacity="0.0" d="m585.68555 606.5702l0 -16.766052" fill-rule="evenodd"/><path stroke="#033e6a" stroke-width="4.0" stroke-linejoin="round" stroke-linecap="butt" d="m585.68555 606.5702l0 -16.766052" fill-rule="evenodd"/><path fill="#000000" fill-opacity="0.0" d="m489.2611 81.55657l0 0c14.660736 -16.713318 33.29077 -24.29971 51.791748 -21.090256c18.500916 3.2094536 35.3573 16.95185 46.86084 38.204018l-55.278442 63.01764z" fill-rule="evenodd"/><path fill="#000000" fill-opacity="0.0" d="m489.2611 81.55657l0 0c14.660736 -16.713318 33.29077 -24.29971 51.791748 -21.090256c18.500916 3.2094536 35.3573 16.95185 46.86084 38.204018" fill-rule="evenodd"/><path stroke="#033e6a" stroke-width="4.0" stroke-linejoin="round" stroke-linecap="butt" d="m489.2611 81.55657l0 0c14.660736 -16.713318 33.29077 -24.29971 51.791748 -21.090256c18.500916 3.2094536 35.3573 16.95185 46.86084 38.204018" fill-rule="evenodd"/><path fill="#000000" fill-opacity="0.0" d="m489.9659 80.81997l0 0c-14.660767 16.71331 -33.290802 24.299706 -51.791748 21.090256c-18.500946 -3.2094574 -35.3573 -16.95185 -46.86084 -38.20402l55.278442 -63.01764z" fill-rule="evenodd"/><path fill="#000000" fill-opacity="0.0" d="m489.9659 80.81997l0 0c-14.660767 16.71331 -33.290802 24.299706 -51.791748 21.090256c-18.500946 -3.2094574 -35.3573 -16.95185 -46.86084 -38.20402" fill-rule="evenodd"/><path stroke="#033e6a" stroke-width="4.0" stroke-linejoin="round" stroke-linecap="butt" d="m489.9659 80.81997l0 0c-14.660767 16.71331 -33.290802 24.299706 -51.791748 21.090256c-18.500946 -3.2094574 -35.3573 -16.95185 -46.86084 -38.20402" fill-rule="evenodd"/><path fill="#000000" fill-opacity="0.0" d="m390.89276 97.05388l0 0c24.372894 -43.847435 68.60898 -50.765823 98.80405 -15.452652l-44.131042 79.39281z" fill-rule="evenodd"/><path fill="#000000" fill-opacity="0.0" d="m390.89276 97.05388l0 0c24.372894 -43.847435 68.60898 -50.765823 98.80405 -15.452652" fill-rule="evenodd"/><path stroke="#033e6a" stroke-width="4.0" stroke-linejoin="round" stroke-linecap="butt" d="m390.89276 97.05388l0 0c24.372894 -43.847435 68.60898 -50.765823 98.80405 -15.452652" fill-rule="evenodd"/><path fill="#000000" fill-opacity="0.0" d="m586.1668 68.92717l0 0c-12.273804 20.364426 -29.615417 32.82969 -48.20984 34.653572c-18.594421 1.8238907 -36.91855 -7.1430054 -50.941254 -24.928062l46.278473 -76.78415z" fill-rule="evenodd"/><path fill="#000000" fill-opacity="0.0" d="m586.1668 68.92717l0 0c-12.273804 20.364426 -29.615417 32.82969 -48.20984 34.653572c-18.594421 1.8238907 -36.91855 -7.1430054 -50.941254 -24.928062" fill-rule="evenodd"/><path stroke="#033e6a" stroke-width="4.0" stroke-linejoin="round" stroke-linecap="butt" d="m586.1668 68.92717l0 0c-12.273804 20.364426 -29.615417 32.82969 -48.20984 34.653572c-18.594421 1.8238907 -36.91855 -7.1430054 -50.941254 -24.928062" fill-rule="evenodd"/><path fill="#000000" fill-opacity="0.0" d="m400.45386 77.74321l0.26028442 5.2552185" fill-rule="evenodd"/><path stroke="#033e6a" stroke-width="4.0" stroke-linejoin="round" stroke-linecap="butt" d="m400.45386 77.74321l0.26028442 5.2552185" fill-rule="evenodd"/><path fill="#000000" fill-opacity="0.0" d="m409.85782 73.51765l0.13015747 13.941383" fill-rule="evenodd"/><path stroke="#033e6a" stroke-width="4.0" stroke-linejoin="round" stroke-linecap="butt" d="m409.85782 73.51765l0.13015747 13.941383" fill-rule="evenodd"/><path fill="#000000" fill-opacity="0.0" d="m419.2295 66.24471l0 28.984665" fill-rule="evenodd"/><path stroke="#033e6a" stroke-width="4.0" stroke-linejoin="round" stroke-linecap="butt" d="m419.2295 66.24471l0 28.984665" fill-rule="evenodd"/><path fill="#000000" fill-opacity="0.0" d="m428.40314 62.608288l0 36.56914" fill-rule="evenodd"/><path stroke="#033e6a" stroke-width="4.0" stroke-linejoin="round" stroke-linecap="butt" d="m428.40314 62.608288l0 36.56914" fill-rule="evenodd"/><path fill="#000000" fill-opacity="0.0" d="m437.67438 59.87649l0 41.82478" fill-rule="evenodd"/><path stroke="#033e6a" stroke-width="4.0" stroke-linejoin="round" stroke-linecap="butt" d="m437.67438 59.87649l0 41.82478" fill-rule="evenodd"/><path fill="#000000" fill-opacity="0.0" d="m446.93475 59.31883l0 43.083614" fill-rule="evenodd"/><path stroke="#033e6a" stroke-width="4.0" stroke-linejoin="round" stroke-linecap="butt" d="m446.93475 59.31883l0 43.083614" fill-rule="evenodd"/><path fill="#000000" fill-opacity="0.0" d="m456.21866 60.39237l0 41.100956" fill-rule="evenodd"/><path stroke="#033e6a" stroke-width="4.0" stroke-linejoin="round" stroke-linecap="butt" d="m456.21866 60.39237l0 41.100956" fill-rule="evenodd"/><path fill="#000000" fill-opacity="0.0" d="m465.4917 63.634792l0 34.77531" fill-rule="evenodd"/><path stroke="#033e6a" stroke-width="4.0" stroke-linejoin="round" stroke-linecap="butt" d="m465.4917 63.634792l0 34.77531" fill-rule="evenodd"/><path fill="#000000" fill-opacity="0.0" d="m474.76294 68.689415l0 24.830513" fill-rule="evenodd"/><path stroke="#033e6a" stroke-width="4.0" stroke-linejoin="round" stroke-linecap="butt" d="m474.76294 68.689415l0 24.830513" fill-rule="evenodd"/><path fill="#000000" fill-opacity="0.0" d="m484.03598 76.099106l0 10.511269" fill-rule="evenodd"/><path stroke="#033e6a" stroke-width="4.0" stroke-linejoin="round" stroke-linecap="butt" d="m484.03598 76.099106l0 10.511269" fill-rule="evenodd"/><path fill="#000000" fill-opacity="0.0" d="m493.30722 77.62637l0 8.056541" fill-rule="evenodd"/><path stroke="#033e6a" stroke-width="4.0" stroke-linejoin="round" stroke-linecap="butt" d="m493.30722 77.62637l0 8.056541" fill-rule="evenodd"/><path fill="#000000" fill-opacity="0.0" d="m502.5803 69.73335l0 23.729034" fill-rule="evenodd"/><path stroke="#033e6a" stroke-width="4.0" stroke-linejoin="round" stroke-linecap="butt" d="m502.5803 69.73335l0 23.729034" fill-rule="evenodd"/><path fill="#000000" fill-opacity="0.0" d="m511.85333 64.46553l0 34.39766" fill-rule="evenodd"/><path stroke="#033e6a" stroke-width="4.0" stroke-linejoin="round" stroke-linecap="butt" d="m511.85333 64.46553l0 34.39766" fill-rule="evenodd"/><path fill="#000000" fill-opacity="0.0" d="m521.1246 61.736362l0 40.03094" fill-rule="evenodd"/><path stroke="#033e6a" stroke-width="4.0" stroke-linejoin="round" stroke-linecap="butt" d="m521.1246 61.736362l0 40.03094" fill-rule="evenodd"/><path fill="#000000" fill-opacity="0.0" d="m530.39764 60.27389l0 43.46126" fill-rule="evenodd"/><path stroke="#033e6a" stroke-width="4.0" stroke-linejoin="round" stroke-linecap="butt" d="m530.39764 60.27389l0 43.46126" fill-rule="evenodd"/><path fill="#000000" fill-opacity="0.0" d="m539.6689 60.621l0 42.73744" fill-rule="evenodd"/><path stroke="#033e6a" stroke-width="4.0" stroke-linejoin="round" stroke-linecap="butt" d="m539.6689 60.621l0 42.73744" fill-rule="evenodd"/><path fill="#000000" fill-opacity="0.0" d="m548.9419 63.32055l0 37.85945" fill-rule="evenodd"/><path stroke="#033e6a" stroke-width="4.0" stroke-linejoin="round" stroke-linecap="butt" d="m548.9419 63.32055l0 37.85945" fill-rule="evenodd"/><path fill="#000000" fill-opacity="0.0" d="m558.21313 67.28943l0 30.054672" fill-rule="evenodd"/><path stroke="#033e6a" stroke-width="4.0" stroke-linejoin="round" stroke-linecap="butt" d="m558.21313 67.28943l0 30.054672" fill-rule="evenodd"/><path fill="#000000" fill-opacity="0.0" d="m567.4862 73.61337l0 17.214561" fill-rule="evenodd"/><path stroke="#033e6a" stroke-width="4.0" stroke-linejoin="round" stroke-linecap="butt" d="m567.4862 73.61337l0 17.214561" fill-rule="evenodd"/><path fill="#000000" fill-opacity="0.0" d="m583.29553 90.94693l0 -17.340446" fill-rule="evenodd"/><path stroke="#033e6a" stroke-width="4.0" stroke-linejoin="round" stroke-linecap="butt" d="m583.29553 90.94693l0 -17.340446" fill-rule="evenodd"/><path fill="#000000" fill-opacity="0.0" d="m566.082 209.62756l0 0c6.9815063 20.961853 4.0880737 40.442368 -8.043762 54.156067c-12.131775 13.713684 -32.50818 20.53717 -56.646637 18.969421l-26.323761 -79.03676z" fill-rule="evenodd"/><path fill="#000000" fill-opacity="0.0" d="m566.082 209.62756l0 0c6.9815063 20.961853 4.0880737 40.442368 -8.043762 54.156067c-12.131775 13.713684 -32.50818 20.53717 -56.646637 18.969421" fill-rule="evenodd"/><path stroke="#033e6a" stroke-width="4.0" stroke-linejoin="round" stroke-linecap="butt" d="m566.082 209.62756l0 0c6.9815063 20.961853 4.0880737 40.442368 -8.043762 54.156067c-12.131775 13.713684 -32.50818 20.53717 -56.646637 18.969421" fill-rule="evenodd"/><path fill="#000000" fill-opacity="0.0" d="m566.36 210.60023l0 0c-6.9815063 -20.961853 -4.0880737 -40.442368 8.043701 -54.15605c12.131836 -13.713684 32.50824 -20.537186 56.646667 -18.969421l26.323792 79.03676z" fill-rule="evenodd"/><path fill="#000000" fill-opacity="0.0" d="m566.36 210.60023l0 0c-6.9815063 -20.961853 -4.0880737 -40.442368 8.043701 -54.15605c12.131836 -13.713684 32.50824 -20.537186 56.646667 -18.969421" fill-rule="evenodd"/><path stroke="#033e6a" stroke-width="4.0" stroke-linejoin="round" stroke-linecap="butt" d="m566.36 210.60023l0 0c-6.9815063 -20.961853 -4.0880737 -40.442368 8.043701 -54.15605c12.131836 -13.713684 32.50824 -20.537186 56.646667 -18.969421" fill-rule="evenodd"/><path fill="#000000" fill-opacity="0.0" d="m602.5246 119.64327l0 0c25.44873 43.26835 9.016785 83.70754 -36.70166 90.32346l-46.07898 -78.34427z" fill-rule="evenodd"/><path fill="#000000" fill-opacity="0.0" d="m602.5246 119.64327l0 0c25.44873 43.26835 9.016785 83.70754 -36.70166 90.32346" fill-rule="evenodd"/><path stroke="#033e6a" stroke-width="4.0" stroke-linejoin="round" stroke-linecap="butt" d="m602.5246 119.64327l0 0c25.44873 43.26835 9.016785 83.70754 -36.70166 90.32346" fill-rule="evenodd"/><path fill="#000000" fill-opacity="0.0" d="m527.9082 296.8913l0 0c-11.336304 -20.889465 -13.299744 -41.855377 -5.458252 -58.28543c7.8414307 -16.430069 24.845459 -26.97844 47.27124 -29.3246l42.743774 78.76384z" fill-rule="evenodd"/><path fill="#000000" fill-opacity="0.0" d="m527.9082 296.8913l0 0c-11.336304 -20.889465 -13.299744 -41.855377 -5.458252 -58.28543c7.8414307 -16.430069 24.845459 -26.97844 47.27124 -29.3246" fill-rule="evenodd"/><path stroke="#033e6a" stroke-width="4.0" stroke-linejoin="round" stroke-linecap="butt" d="m527.9082 296.8913l0 0c-11.336304 -20.889465 -13.299744 -41.855377 -5.458252 -58.28543c7.8414307 -16.430069 24.845459 -26.97844 47.27124 -29.3246" fill-rule="evenodd"/><path fill="#000000" fill-opacity="0.0" d="m614.3261 137.72285l-4.6606445 -2.538269" fill-rule="evenodd"/><path stroke="#033e6a" stroke-width="4.0" stroke-linejoin="round" stroke-linecap="butt" d="m614.3261 137.72285l-4.6606445 -2.538269" fill-rule="evenodd"/><path fill="#000000" fill-opacity="0.0" d="m613.207 147.7638l-12.080383 -7.2000427" fill-rule="evenodd"/><path stroke="#033e6a" stroke-width="4.0" stroke-linejoin="round" stroke-linecap="butt" d="m613.207 147.7638l-12.080383 -7.2000427" fill-rule="evenodd"/><path fill="#000000" fill-opacity="0.0" d="m614.7304 159.37535l-24.978699 -15.194336" fill-rule="evenodd"/><path stroke="#033e6a" stroke-width="4.0" stroke-linejoin="round" stroke-linecap="butt" d="m614.7304 159.37535l-24.978699 -15.194336" fill-rule="evenodd"/><path fill="#000000" fill-opacity="0.0" d="m613.22015 168.91576l-31.514893 -19.170258" fill-rule="evenodd"/><path stroke="#033e6a" stroke-width="4.0" stroke-linejoin="round" stroke-linecap="butt" d="m613.22015 168.91576l-31.514893 -19.170258" fill-rule="evenodd"/><path fill="#000000" fill-opacity="0.0" d="m610.8809 178.06317l-36.04413 -21.92537" fill-rule="evenodd"/><path stroke="#033e6a" stroke-width="4.0" stroke-linejoin="round" stroke-linecap="butt" d="m610.8809 178.06317l-36.04413 -21.92537" fill-rule="evenodd"/><path fill="#000000" fill-opacity="0.0" d="m606.6735 186.06183l-37.128967 -22.585266" fill-rule="evenodd"/><path stroke="#033e6a" stroke-width="4.0" stroke-linejoin="round" stroke-linecap="butt" d="m606.6735 186.06183l-37.128967 -22.585266" fill-rule="evenodd"/><path fill="#000000" fill-opacity="0.0" d="m601.04846 193.22495l-35.42035 -21.545914" fill-rule="evenodd"/><path stroke="#033e6a" stroke-width="4.0" stroke-linejoin="round" stroke-linecap="butt" d="m601.04846 193.22495l-35.42035 -21.545914" fill-rule="evenodd"/><path fill="#000000" fill-opacity="0.0" d="m593.5598 199.24207l-29.968994 -18.229889" fill-rule="evenodd"/><path stroke="#033e6a" stroke-width="4.0" stroke-linejoin="round" stroke-linecap="butt" d="m593.5598 199.24207l-29.968994 -18.229889" fill-rule="evenodd"/><path fill="#000000" fill-opacity="0.0" d="m584.5103 204.30768l-21.398682 -13.016632" fill-rule="evenodd"/><path stroke="#033e6a" stroke-width="4.0" stroke-linejoin="round" stroke-linecap="butt" d="m584.5103 204.30768l-21.398682 -13.016632" fill-rule="evenodd"/><path fill="#000000" fill-opacity="0.0" d="m573.4303 208.14024l-9.058472 -5.5102234" fill-rule="evenodd"/><path stroke="#033e6a" stroke-width="4.0" stroke-linejoin="round" stroke-linecap="butt" d="m573.4303 208.14024l-9.058472 -5.5102234" fill-rule="evenodd"/><path fill="#000000" fill-opacity="0.0" d="m567.42065 215.05498l-6.943054 -4.223404" fill-rule="evenodd"/><path stroke="#033e6a" stroke-width="4.0" stroke-linejoin="round" stroke-linecap="butt" d="m567.42065 215.05498l-6.943054 -4.223404" fill-rule="evenodd"/><path fill="#000000" fill-opacity="0.0" d="m569.5284 226.9095l-20.449402 -12.439224" fill-rule="evenodd"/><path stroke="#033e6a" stroke-width="4.0" stroke-linejoin="round" stroke-linecap="butt" d="m569.5284 226.9095l-20.449402 -12.439224" fill-rule="evenodd"/><path fill="#000000" fill-opacity="0.0" d="m569.3737 237.38785l-29.643494 -18.031906" fill-rule="evenodd"/><path stroke="#033e6a" stroke-width="4.0" stroke-linejoin="round" stroke-linecap="butt" d="m569.3737 237.38785l-29.643494 -18.031906" fill-rule="evenodd"/><path fill="#000000" fill-opacity="0.0" d="m567.0322 246.53389l-34.49823 -20.985" fill-rule="evenodd"/><path stroke="#033e6a" stroke-width="4.0" stroke-linejoin="round" stroke-linecap="butt" d="m567.0322 246.53389l-34.49823 -20.985" fill-rule="evenodd"/><path fill="#000000" fill-opacity="0.0" d="m563.5982 255.01741l-37.454468 -22.783249" fill-rule="evenodd"/><path stroke="#033e6a" stroke-width="4.0" stroke-linejoin="round" stroke-linecap="butt" d="m563.5982 255.01741l-37.454468 -22.783249" fill-rule="evenodd"/><path fill="#000000" fill-opacity="0.0" d="m558.6056 262.5508l-36.83069 -22.403809" fill-rule="evenodd"/><path stroke="#033e6a" stroke-width="4.0" stroke-linejoin="round" stroke-linecap="butt" d="m558.6056 262.5508l-36.83069 -22.403809" fill-rule="evenodd"/><path fill="#000000" fill-opacity="0.0" d="m551.5847 268.8525l-32.626892 -19.846664" fill-rule="evenodd"/><path stroke="#033e6a" stroke-width="4.0" stroke-linejoin="round" stroke-linecap="butt" d="m551.5847 268.8525l-32.626892 -19.846664" fill-rule="evenodd"/><path fill="#000000" fill-opacity="0.0" d="m543.4709 274.48727l-25.900757 -15.7552185" fill-rule="evenodd"/><path stroke="#033e6a" stroke-width="4.0" stroke-linejoin="round" stroke-linecap="butt" d="m543.4709 274.48727l-25.900757 -15.7552185" fill-rule="evenodd"/><path fill="#000000" fill-opacity="0.0" d="m533.3266 278.889l-14.835327 -9.0242" fill-rule="evenodd"/><path stroke="#033e6a" stroke-width="4.0" stroke-linejoin="round" stroke-linecap="butt" d="m533.3266 278.889l-14.835327 -9.0242" fill-rule="evenodd"/><path fill="#000000" fill-opacity="0.0" d="m510.38538 282.95868l14.943848 9.09021" fill-rule="evenodd"/><path stroke="#033e6a" stroke-width="4.0" stroke-linejoin="round" stroke-linecap="butt" d="m510.38538 282.95868l14.943848 9.09021" fill-rule="evenodd"/><path fill="#000000" fill-opacity="0.0" d="m414.85016 467.7616l0 0c6.427063 20.659546 3.2704468 40.02234 -8.775452 53.828796c-12.045929 13.8064575 -31.994354 20.925598 -55.45691 19.79132l-24.233337 -77.89694z" fill-rule="evenodd"/><path fill="#000000" fill-opacity="0.0" d="m414.85016 467.7616l0 0c6.427063 20.659546 3.2704468 40.02234 -8.775452 53.828796c-12.045929 13.8064575 -31.994354 20.925598 -55.45691 19.79132" fill-rule="evenodd"/><path stroke="#033e6a" stroke-width="4.0" stroke-linejoin="round" stroke-linecap="butt" d="m414.85016 467.7616l0 0c6.427063 20.659546 3.2704468 40.02234 -8.775452 53.828796c-12.045929 13.8064575 -31.994354 20.925598 -55.45691 19.79132" fill-rule="evenodd"/><path fill="#000000" fill-opacity="0.0" d="m415.10367 468.72104l0 0c-6.4270935 -20.659546 -3.2704468 -40.02234 8.775452 -53.828796c12.045898 -13.8064575 31.994354 -20.925598 55.45691 -19.79129l24.233307 77.89691z" fill-rule="evenodd"/><path fill="#000000" fill-opacity="0.0" d="m415.10367 468.72104l0 0c-6.4270935 -20.659546 -3.2704468 -40.02234 8.775452 -53.828796c12.045898 -13.8064575 31.994354 -20.925598 55.45691 -19.79129" fill-rule="evenodd"/><path stroke="#033e6a" stroke-width="4.0" stroke-linejoin="round" stroke-linecap="butt" d="m415.10367 468.72104l0 0c-6.4270935 -20.659546 -3.2704468 -40.02234 8.775452 -53.828796c12.045898 -13.8064575 31.994354 -20.925598 55.45691 -19.79129" fill-rule="evenodd"/><path fill="#000000" fill-opacity="0.0" d="m451.88867 377.91956l0 0c24.007782 42.45233 7.30954 82.82855 -37.29654 90.1828l-43.46994 -76.86673z" fill-rule="evenodd"/><path fill="#000000" fill-opacity="0.0" d="m451.88867 377.91956l0 0c24.007782 42.45233 7.30954 82.82855 -37.29654 90.1828" fill-rule="evenodd"/><path stroke="#033e6a" stroke-width="4.0" stroke-linejoin="round" stroke-linecap="butt" d="m451.88867 377.91956l0 0c24.007782 42.45233 7.30954 82.82855 -37.29654 90.1828" fill-rule="evenodd"/><path fill="#000000" fill-opacity="0.0" d="m376.17468 554.93665l0 0c-10.666199 -20.512024 -12.20993 -41.26288 -4.2915955 -57.687653c7.9183655 -16.424744 24.650177 -27.177948 46.514618 -29.894012l40.21695 77.3407z" fill-rule="evenodd"/><path fill="#000000" fill-opacity="0.0" d="m376.17468 554.93665l0 0c-10.666199 -20.512024 -12.20993 -41.26288 -4.2915955 -57.687653c7.9183655 -16.424744 24.650177 -27.177948 46.514618 -29.894012" fill-rule="evenodd"/><path stroke="#033e6a" stroke-width="4.0" stroke-linejoin="round" stroke-linecap="butt" d="m376.17468 554.93665l0 0c-10.666199 -20.512024 -12.20993 -41.26288 -4.2915955 -57.687653c7.9183655 -16.424744 24.650177 -27.177948 46.514618 -29.894012" fill-rule="evenodd"/><path fill="#000000" fill-opacity="0.0" d="m463.05673 395.63785l-4.491028 -2.4352722" fill-rule="evenodd"/><path stroke="#033e6a" stroke-width="4.0" stroke-linejoin="round" stroke-linecap="butt" d="m463.05673 395.63785l-4.491028 -2.4352722" fill-rule="evenodd"/><path fill="#000000" fill-opacity="0.0" d="m461.79193 405.61163l-11.629883 -6.9277344" fill-rule="evenodd"/><path stroke="#033e6a" stroke-width="4.0" stroke-linejoin="round" stroke-linecap="butt" d="m461.79193 405.61163l-11.629883 -6.9277344" fill-rule="evenodd"/><path fill="#000000" fill-opacity="0.0" d="m463.0712 417.09653l-24.041718 -14.628693" fill-rule="evenodd"/><path stroke="#033e6a" stroke-width="4.0" stroke-linejoin="round" stroke-linecap="butt" d="m463.0712 417.09653l-24.041718 -14.628693" fill-rule="evenodd"/><path fill="#000000" fill-opacity="0.0" d="m461.43457 426.5809l-30.332794 -18.456604" fill-rule="evenodd"/><path stroke="#033e6a" stroke-width="4.0" stroke-linejoin="round" stroke-linecap="butt" d="m461.43457 426.5809l-30.332794 -18.456604" fill-rule="evenodd"/><path fill="#000000" fill-opacity="0.0" d="m458.99805 435.6901l-34.69211 -21.10913" fill-rule="evenodd"/><path stroke="#033e6a" stroke-width="4.0" stroke-linejoin="round" stroke-linecap="butt" d="m458.99805 435.6901l-34.69211 -21.10913" fill-rule="evenodd"/><path fill="#000000" fill-opacity="0.0" d="m454.7637 443.69296l-35.736298 -21.744476" fill-rule="evenodd"/><path stroke="#033e6a" stroke-width="4.0" stroke-linejoin="round" stroke-linecap="butt" d="m454.7637 443.69296l-35.736298 -21.744476" fill-rule="evenodd"/><path fill="#000000" fill-opacity="0.0" d="m449.1644 450.89215l-34.091736 -20.743805" fill-rule="evenodd"/><path stroke="#033e6a" stroke-width="4.0" stroke-linejoin="round" stroke-linecap="butt" d="m449.1644 450.89215l-34.091736 -20.743805" fill-rule="evenodd"/><path fill="#000000" fill-opacity="0.0" d="m441.77158 456.98764l-28.844849 -17.551239" fill-rule="evenodd"/><path stroke="#033e6a" stroke-width="4.0" stroke-linejoin="round" stroke-linecap="butt" d="m441.77158 456.98764l-28.844849 -17.551239" fill-rule="evenodd"/><path fill="#000000" fill-opacity="0.0" d="m432.87653 462.167l-20.596008 -12.532043" fill-rule="evenodd"/><path stroke="#033e6a" stroke-width="4.0" stroke-linejoin="round" stroke-linecap="butt" d="m432.87653 462.167l-20.596008 -12.532043" fill-rule="evenodd"/><path fill="#000000" fill-opacity="0.0" d="m422.02713 466.15924l-8.7187195 -5.3050537" fill-rule="evenodd"/><path stroke="#033e6a" stroke-width="4.0" stroke-linejoin="round" stroke-linecap="butt" d="m422.02713 466.15924l-8.7187195 -5.3050537" fill-rule="evenodd"/><path fill="#000000" fill-opacity="0.0" d="m416.0579 473.1189l-6.682617 -4.066162" fill-rule="evenodd"/><path stroke="#033e6a" stroke-width="4.0" stroke-linejoin="round" stroke-linecap="butt" d="m416.0579 473.1189l-6.682617 -4.066162" fill-rule="evenodd"/><path fill="#000000" fill-opacity="0.0" d="m417.90152 484.83447l-19.682373 -11.976135" fill-rule="evenodd"/><path stroke="#033e6a" stroke-width="4.0" stroke-linejoin="round" stroke-linecap="butt" d="m417.90152 484.83447l-19.682373 -11.976135" fill-rule="evenodd"/><path fill="#000000" fill-opacity="0.0" d="m417.56766 495.22513l-28.531616 -17.360626" fill-rule="evenodd"/><path stroke="#033e6a" stroke-width="4.0" stroke-linejoin="round" stroke-linecap="butt" d="m417.56766 495.22513l-28.531616 -17.360626" fill-rule="evenodd"/><path fill="#000000" fill-opacity="0.0" d="m415.12897 504.333l-33.204193 -20.203766" fill-rule="evenodd"/><path stroke="#033e6a" stroke-width="4.0" stroke-linejoin="round" stroke-linecap="butt" d="m415.12897 504.333l-33.204193 -20.203766" fill-rule="evenodd"/><path fill="#000000" fill-opacity="0.0" d="m411.6387 512.8031l-36.04953 -21.93509" fill-rule="evenodd"/><path stroke="#033e6a" stroke-width="4.0" stroke-linejoin="round" stroke-linecap="butt" d="m411.6387 512.8031l-36.04953 -21.93509" fill-rule="evenodd"/><path fill="#000000" fill-opacity="0.0" d="m406.64838 520.35834l-35.449158 -21.569733" fill-rule="evenodd"/><path stroke="#033e6a" stroke-width="4.0" stroke-linejoin="round" stroke-linecap="butt" d="m406.64838 520.35834l-35.449158 -21.569733" fill-rule="evenodd"/><path fill="#000000" fill-opacity="0.0" d="m399.70584 526.72784l-31.403046 -19.107819" fill-rule="evenodd"/><path stroke="#033e6a" stroke-width="4.0" stroke-linejoin="round" stroke-linecap="butt" d="m399.70584 526.72784l-31.403046 -19.107819" fill-rule="evenodd"/><path fill="#000000" fill-opacity="0.0" d="m391.7114 532.45514l-24.92926 -15.168701" fill-rule="evenodd"/><path stroke="#033e6a" stroke-width="4.0" stroke-linejoin="round" stroke-linecap="butt" d="m391.7114 532.45514l-24.92926 -15.168701" fill-rule="evenodd"/><path fill="#000000" fill-opacity="0.0" d="m381.76254 536.9954l-14.278839 -8.688293" fill-rule="evenodd"/><path stroke="#033e6a" stroke-width="4.0" stroke-linejoin="round" stroke-linecap="butt" d="m381.76254 536.9954l-14.278839 -8.688293" fill-rule="evenodd"/><path fill="#000000" fill-opacity="0.0" d="m359.3664 541.4291l14.38327 8.751831" fill-rule="evenodd"/><path stroke="#033e6a" stroke-width="4.0" stroke-linejoin="round" stroke-linecap="butt" d="m359.3664 541.4291l14.38327 8.751831" fill-rule="evenodd"/><path fill="#000000" fill-opacity="0.0" d="m412.14362 211.9096l0 0c21.680725 3.1513367 37.66986 14.397186 44.44998 31.263596c6.7800903 16.86641 3.7957458 37.971786 -8.296478 58.673172l-81.747345 -11.882111z" fill-rule="evenodd"/><path fill="#000000" fill-opacity="0.0" d="m412.14362 211.9096l0 0c21.680725 3.1513367 37.66986 14.397186 44.44998 31.263596c6.7800903 16.86641 3.7957458 37.971786 -8.296478 58.673172" fill-rule="evenodd"/><path stroke="#033e6a" stroke-width="4.0" stroke-linejoin="round" stroke-linecap="butt" d="m412.14362 211.9096l0 0c21.680725 3.1513367 37.66986 14.397186 44.44998 31.263596c6.7800903 16.86641 3.7957458 37.971786 -8.296478 58.673172" fill-rule="evenodd"/><path fill="#000000" fill-opacity="0.0" d="m413.12924 212.09657l0 0c-21.680725 -3.1513367 -37.66986 -14.397186 -44.44998 -31.26361c-6.7800903 -16.86641 -3.7957764 -37.971786 8.296478 -58.673164l81.747345 11.882118z" fill-rule="evenodd"/><path fill="#000000" fill-opacity="0.0" d="m413.12924 212.09657l0 0c-21.680725 -3.1513367 -37.66986 -14.397186 -44.44998 -31.26361c-6.7800903 -16.86641 -3.7957764 -37.971786 8.296478 -58.673164" fill-rule="evenodd"/><path stroke="#033e6a" stroke-width="4.0" stroke-linejoin="round" stroke-linecap="butt" d="m413.12924 212.09657l0 0c-21.680725 -3.1513367 -37.66986 -14.397186 -44.44998 -31.26361c-6.7800903 -16.86641 -3.7957764 -37.971786 8.296478 -58.673164" fill-rule="evenodd"/><path fill="#000000" fill-opacity="0.0" d="m348.51843 139.5035l0 0c49.646088 -3.280838 78.21527 29.306976 63.811035 72.78691l-89.89221 5.9404907z" fill-rule="evenodd"/><path fill="#000000" fill-opacity="0.0" d="m348.51843 139.5035l0 0c49.646088 -3.280838 78.21527 29.306976 63.811035 72.78691" fill-rule="evenodd"/><path stroke="#033e6a" stroke-width="4.0" stroke-linejoin="round" stroke-linecap="butt" d="m348.51843 139.5035l0 0c49.646088 -3.280838 78.21527 29.306976 63.811035 72.78691" fill-rule="evenodd"/><path fill="#000000" fill-opacity="0.0" d="m472.5891 284.6381l0 0c-23.547363 0.74172974 -43.006836 -6.860199 -54.097565 -21.133453c-11.090698 -14.273239 -12.904175 -34.0486 -5.041443 -54.97574l88.78543 -2.7966766z" fill-rule="evenodd"/><path fill="#000000" fill-opacity="0.0" d="m472.5891 284.6381l0 0c-23.547363 0.74172974 -43.006836 -6.860199 -54.097565 -21.133453c-11.090698 -14.273239 -12.904175 -34.0486 -5.041443 -54.97574" fill-rule="evenodd"/><path stroke="#033e6a" stroke-width="4.0" stroke-linejoin="round" stroke-linecap="butt" d="m472.5891 284.6381l0 0c-23.547363 0.74172974 -43.006836 -6.860199 -54.097565 -21.133453c-11.090698 -14.273239 -12.904175 -34.0486 -5.041443 -54.97574" fill-rule="evenodd"/><path fill="#000000" fill-opacity="0.0" d="m369.7807 137.09726l-4.3168945 3.0008392" fill-rule="evenodd"/><path stroke="#033e6a" stroke-width="4.0" stroke-linejoin="round" stroke-linecap="butt" d="m369.7807 137.09726l-4.3168945 3.0008392" fill-rule="evenodd"/><path fill="#000000" fill-opacity="0.0" d="m378.1871 142.56377l-11.739807 7.5015106" fill-rule="evenodd"/><path stroke="#033e6a" stroke-width="4.0" stroke-linejoin="round" stroke-linecap="butt" d="m378.1871 142.56377l-11.739807 7.5015106" fill-rule="evenodd"/><path fill="#000000" fill-opacity="0.0" d="m389.15768 146.38739l-24.546478 15.374161" fill-rule="evenodd"/><path stroke="#033e6a" stroke-width="4.0" stroke-linejoin="round" stroke-linecap="butt" d="m389.15768 146.38739l-24.546478 15.374161" fill-rule="evenodd"/><path fill="#000000" fill-opacity="0.0" d="m396.9469 151.97757l-30.969604 19.397171" fill-rule="evenodd"/><path stroke="#033e6a" stroke-width="4.0" stroke-linejoin="round" stroke-linecap="butt" d="m396.9469 151.97757l-30.969604 19.397171" fill-rule="evenodd"/><path fill="#000000" fill-opacity="0.0" d="m404.0201 158.12761l-35.42047 22.184875" fill-rule="evenodd"/><path stroke="#033e6a" stroke-width="4.0" stroke-linejoin="round" stroke-linecap="butt" d="m404.0201 158.12761l-35.42047 22.184875" fill-rule="evenodd"/><path fill="#000000" fill-opacity="0.0" d="m409.24652 165.42197l-36.48654 22.8526" fill-rule="evenodd"/><path stroke="#033e6a" stroke-width="4.0" stroke-linejoin="round" stroke-linecap="butt" d="m409.24652 165.42197l-36.48654 22.8526" fill-rule="evenodd"/><path fill="#000000" fill-opacity="0.0" d="m413.10358 173.60081l-34.807465 21.800934" fill-rule="evenodd"/><path stroke="#033e6a" stroke-width="4.0" stroke-linejoin="round" stroke-linecap="butt" d="m413.10358 173.60081l-34.807465 21.800934" fill-rule="evenodd"/><path fill="#000000" fill-opacity="0.0" d="m415.1183 182.9212l-29.450409 18.445663" fill-rule="evenodd"/><path stroke="#033e6a" stroke-width="4.0" stroke-linejoin="round" stroke-linecap="butt" d="m415.1183 182.9212l-29.450409 18.445663" fill-rule="evenodd"/><path fill="#000000" fill-opacity="0.0" d="m415.59735 193.20134l-21.028381 13.1707" fill-rule="evenodd"/><path stroke="#033e6a" stroke-width="4.0" stroke-linejoin="round" stroke-linecap="butt" d="m415.59735 193.20134l-21.028381 13.1707" fill-rule="evenodd"/><path fill="#000000" fill-opacity="0.0" d="m414.08292 204.73215l-8.901764 5.575424" fill-rule="evenodd"/><path stroke="#033e6a" stroke-width="4.0" stroke-linejoin="round" stroke-linecap="butt" d="m414.08292 204.73215l-8.901764 5.575424" fill-rule="evenodd"/><path fill="#000000" fill-opacity="0.0" d="m417.54922 213.14128l-6.8229065 4.2733917" fill-rule="evenodd"/><path stroke="#033e6a" stroke-width="4.0" stroke-linejoin="round" stroke-linecap="butt" d="m417.54922 213.14128l-6.8229065 4.2733917" fill-rule="evenodd"/><path fill="#000000" fill-opacity="0.0" d="m428.9943 216.55516l-20.095581 12.586456" fill-rule="evenodd"/><path stroke="#033e6a" stroke-width="4.0" stroke-linejoin="round" stroke-linecap="butt" d="m428.9943 216.55516l-20.095581 12.586456" fill-rule="evenodd"/><path fill="#000000" fill-opacity="0.0" d="m438.21613 221.36151l-29.130585 18.245346" fill-rule="evenodd"/><path stroke="#033e6a" stroke-width="4.0" stroke-linejoin="round" stroke-linecap="butt" d="m438.21613 221.36151l-29.130585 18.245346" fill-rule="evenodd"/><path fill="#000000" fill-opacity="0.0" d="m445.28714 227.51292l-33.901306 21.233398" fill-rule="evenodd"/><path stroke="#033e6a" stroke-width="4.0" stroke-linejoin="round" stroke-linecap="butt" d="m445.28714 227.51292l-33.901306 21.233398" fill-rule="evenodd"/><path fill="#000000" fill-opacity="0.0" d="m451.28632 234.33772l-36.806366 23.052902" fill-rule="evenodd"/><path stroke="#033e6a" stroke-width="4.0" stroke-linejoin="round" stroke-linecap="butt" d="m451.28632 234.33772l-36.806366 23.052902" fill-rule="evenodd"/><path fill="#000000" fill-opacity="0.0" d="m455.75208 242.12088l-36.19339 22.668976" fill-rule="evenodd"/><path stroke="#033e6a" stroke-width="4.0" stroke-linejoin="round" stroke-linecap="butt" d="m455.75208 242.12088l-36.19339 22.668976" fill-rule="evenodd"/><path fill="#000000" fill-opacity="0.0" d="m458.22653 251.15332l-32.062317 20.081573" fill-rule="evenodd"/><path stroke="#033e6a" stroke-width="4.0" stroke-linejoin="round" stroke-linecap="butt" d="m458.22653 251.15332l-32.062317 20.081573" fill-rule="evenodd"/><path fill="#000000" fill-opacity="0.0" d="m459.6251 260.85754l-25.452637 15.941742" fill-rule="evenodd"/><path stroke="#033e6a" stroke-width="4.0" stroke-linejoin="round" stroke-linecap="butt" d="m459.6251 260.85754l-25.452637 15.941742" fill-rule="evenodd"/><path fill="#000000" fill-opacity="0.0" d="m459.03012 271.81244l-14.578613 9.1310425" fill-rule="evenodd"/><path stroke="#033e6a" stroke-width="4.0" stroke-linejoin="round" stroke-linecap="butt" d="m459.03012 271.81244l-14.578613 9.1310425" fill-rule="evenodd"/><path fill="#000000" fill-opacity="0.0" d="m452.467 293.9645l14.685242 -9.197784" fill-rule="evenodd"/><path stroke="#033e6a" stroke-width="4.0" stroke-linejoin="round" stroke-linecap="butt" d="m452.467 293.9645l14.685242 -9.197784" fill-rule="evenodd"/><path fill="#000000" fill-opacity="0.0" d="m561.5208 471.83124l0 0c21.378784 3.6720276 37.35309 15.348663 44.408752 32.46118c7.055664 17.112488 4.614746 38.259094 -6.7857666 58.78778l-80.608765 -13.845398z" fill-rule="evenodd"/><path fill="#000000" fill-opacity="0.0" d="m561.5208 471.83124l0 0c21.378784 3.6720276 37.35309 15.348663 44.408752 32.46118c7.055664 17.112488 4.614746 38.259094 -6.7857666 58.78778" fill-rule="evenodd"/><path stroke="#033e6a" stroke-width="4.0" stroke-linejoin="round" stroke-linecap="butt" d="m561.5208 471.83124l0 0c21.378784 3.6720276 37.35309 15.348663 44.408752 32.46118c7.055664 17.112488 4.614746 38.259094 -6.7857666 58.78778" fill-rule="evenodd"/><path fill="#000000" fill-opacity="0.0" d="m562.4938 472.04208l0 0c-21.378784 -3.6720276 -37.35309 -15.348663 -44.408752 -32.46118c-7.0556335 -17.112488 -4.614746 -38.259094 6.7858276 -58.78781l80.608765 13.845459z" fill-rule="evenodd"/><path fill="#000000" fill-opacity="0.0" d="m562.4938 472.04208l0 0c-21.378784 -3.6720276 -37.35309 -15.348663 -44.408752 -32.46118c-7.0556335 -17.112488 -4.614746 -38.259094 6.7858276 -58.78781" fill-rule="evenodd"/><path stroke="#033e6a" stroke-width="4.0" stroke-linejoin="round" stroke-linecap="butt" d="m562.4938 472.04208l0 0c-21.378784 -3.6720276 -37.35309 -15.348663 -44.408752 -32.46118c-7.0556335 -17.112488 -4.614746 -38.259094 6.7858276 -58.78781" fill-rule="evenodd"/><path fill="#000000" fill-opacity="0.0" d="m497.31036 397.56595l0 0c48.710022 -2.1435242 77.54382 31.27948 64.40198 74.652405l-88.19733 3.8811646z" fill-rule="evenodd"/><path fill="#000000" fill-opacity="0.0" d="m497.31036 397.56595l0 0c48.710022 -2.1435242 77.54382 31.27948 64.40198 74.652405" fill-rule="evenodd"/><path stroke="#033e6a" stroke-width="4.0" stroke-linejoin="round" stroke-linecap="butt" d="m497.31036 397.56595l0 0c48.710022 -2.1435242 77.54382 31.27948 64.40198 74.652405" fill-rule="evenodd"/><path fill="#000000" fill-opacity="0.0" d="m622.61426 546.3466l0 0c-23.122375 0.19805908 -42.42206 -7.8963013 -53.65326 -22.502258c-11.231262 -14.605988 -13.47406 -34.52719 -6.2350464 -55.381165l87.18298 -0.74664307z" fill-rule="evenodd"/><path fill="#000000" fill-opacity="0.0" d="m622.61426 546.3466l0 0c-23.122375 0.19805908 -42.42206 -7.8963013 -53.65326 -22.502258c-11.231262 -14.605988 -13.47406 -34.52719 -6.2350464 -55.381165" fill-rule="evenodd"/><path stroke="#033e6a" stroke-width="4.0" stroke-linejoin="round" stroke-linecap="butt" d="m622.61426 546.3466l0 0c-23.122375 0.19805908 -42.42206 -7.8963013 -53.65326 -22.502258c-11.231262 -14.605988 -13.47406 -34.52719 -6.2350464 -55.381165" fill-rule="evenodd"/><path fill="#000000" fill-opacity="0.0" d="m518.14844 395.64154l-4.172241 2.9161987" fill-rule="evenodd"/><path stroke="#033e6a" stroke-width="4.0" stroke-linejoin="round" stroke-linecap="butt" d="m518.14844 395.64154l-4.172241 2.9161987" fill-rule="evenodd"/><path fill="#000000" fill-opacity="0.0" d="m526.5366 401.33218l-11.361755 7.267853" fill-rule="evenodd"/><path stroke="#033e6a" stroke-width="4.0" stroke-linejoin="round" stroke-linecap="butt" d="m526.5366 401.33218l-11.361755 7.267853" fill-rule="evenodd"/><path fill="#000000" fill-opacity="0.0" d="m537.4063 405.431l-23.763245 14.883911" fill-rule="evenodd"/><path stroke="#033e6a" stroke-width="4.0" stroke-linejoin="round" stroke-linecap="butt" d="m537.4063 405.431l-23.763245 14.883911" fill-rule="evenodd"/><path fill="#000000" fill-opacity="0.0" d="m545.1909 411.23163l-29.981445 18.778656" fill-rule="evenodd"/><path stroke="#033e6a" stroke-width="4.0" stroke-linejoin="round" stroke-linecap="butt" d="m545.1909 411.23163l-29.981445 18.778656" fill-rule="evenodd"/><path fill="#000000" fill-opacity="0.0" d="m552.285 417.57837l-34.290283 21.477478" fill-rule="evenodd"/><path stroke="#033e6a" stroke-width="4.0" stroke-linejoin="round" stroke-linecap="butt" d="m552.285 417.57837l-34.290283 21.477478" fill-rule="evenodd"/><path fill="#000000" fill-opacity="0.0" d="m557.5908 425.0325l-35.322327 22.123932" fill-rule="evenodd"/><path stroke="#033e6a" stroke-width="4.0" stroke-linejoin="round" stroke-linecap="butt" d="m557.5908 425.0325l-35.322327 22.123932" fill-rule="evenodd"/><path fill="#000000" fill-opacity="0.0" d="m561.57166 433.34393l-33.69684 21.105774" fill-rule="evenodd"/><path stroke="#033e6a" stroke-width="4.0" stroke-linejoin="round" stroke-linecap="butt" d="m561.57166 433.34393l-33.69684 21.105774" fill-rule="evenodd"/><path fill="#000000" fill-opacity="0.0" d="m563.7686 442.76004l-28.510742 17.857483" fill-rule="evenodd"/><path stroke="#033e6a" stroke-width="4.0" stroke-linejoin="round" stroke-linecap="butt" d="m563.7686 442.76004l-28.510742 17.857483" fill-rule="evenodd"/><path fill="#000000" fill-opacity="0.0" d="m564.47894 453.1052l-20.357483 12.750732" fill-rule="evenodd"/><path stroke="#033e6a" stroke-width="4.0" stroke-linejoin="round" stroke-linecap="butt" d="m564.47894 453.1052l-20.357483 12.750732" fill-rule="evenodd"/><path fill="#000000" fill-opacity="0.0" d="m563.25934 464.66122l-8.617737 5.3976746" fill-rule="evenodd"/><path stroke="#033e6a" stroke-width="4.0" stroke-linejoin="round" stroke-linecap="butt" d="m563.25934 464.66122l-8.617737 5.3976746" fill-rule="evenodd"/><path fill="#000000" fill-opacity="0.0" d="m566.8616 473.19507l-6.6052246 4.1371155" fill-rule="evenodd"/><path stroke="#033e6a" stroke-width="4.0" stroke-linejoin="round" stroke-linecap="butt" d="m566.8616 473.19507l-6.6052246 4.1371155" fill-rule="evenodd"/><path fill="#000000" fill-opacity="0.0" d="m578.188 476.893l-19.454407 12.18512" fill-rule="evenodd"/><path stroke="#033e6a" stroke-width="4.0" stroke-linejoin="round" stroke-linecap="butt" d="m578.188 476.893l-19.454407 12.18512" fill-rule="evenodd"/><path fill="#000000" fill-opacity="0.0" d="m587.3622 481.939l-28.201172 17.663574" fill-rule="evenodd"/><path stroke="#033e6a" stroke-width="4.0" stroke-linejoin="round" stroke-linecap="butt" d="m587.3622 481.939l-28.201172 17.663574" fill-rule="evenodd"/><path fill="#000000" fill-opacity="0.0" d="m594.45404 488.2871l-32.81964 20.556305" fill-rule="evenodd"/><path stroke="#033e6a" stroke-width="4.0" stroke-linejoin="round" stroke-linecap="butt" d="m594.45404 488.2871l-32.81964 20.556305" fill-rule="evenodd"/><path fill="#000000" fill-opacity="0.0" d="m600.50836 495.28717l-35.63202 22.317871" fill-rule="evenodd"/><path stroke="#033e6a" stroke-width="4.0" stroke-linejoin="round" stroke-linecap="butt" d="m600.50836 495.28717l-35.63202 22.317871" fill-rule="evenodd"/><path fill="#000000" fill-opacity="0.0" d="m605.0781 503.215l-35.038574 21.946136" fill-rule="evenodd"/><path stroke="#033e6a" stroke-width="4.0" stroke-linejoin="round" stroke-linecap="butt" d="m605.0781 503.215l-35.038574 21.946136" fill-rule="evenodd"/><path fill="#000000" fill-opacity="0.0" d="m607.72015 512.3523l-31.039246 19.441284" fill-rule="evenodd"/><path stroke="#033e6a" stroke-width="4.0" stroke-linejoin="round" stroke-linecap="butt" d="m607.72015 512.3523l-31.039246 19.441284" fill-rule="evenodd"/><path fill="#000000" fill-opacity="0.0" d="m609.3206 522.13995l-24.640503 15.433411" fill-rule="evenodd"/><path stroke="#033e6a" stroke-width="4.0" stroke-linejoin="round" stroke-linecap="butt" d="m609.3206 522.13995l-24.640503 15.433411" fill-rule="evenodd"/><path fill="#000000" fill-opacity="0.0" d="m608.9912 533.1384l-14.113464 8.839905" fill-rule="evenodd"/><path stroke="#033e6a" stroke-width="4.0" stroke-linejoin="round" stroke-linecap="butt" d="m608.9912 533.1384l-14.113464 8.839905" fill-rule="evenodd"/><path fill="#000000" fill-opacity="0.0" d="m603.05786 555.254l14.216675 -8.904541" fill-rule="evenodd"/><path stroke="#033e6a" stroke-width="4.0" stroke-linejoin="round" stroke-linecap="butt" d="m603.05786 555.254l14.216675 -8.904541" fill-rule="evenodd"/><path fill="#000000" fill-opacity="0.0" d="m643.1681 338.3459l0 0c14.83313 -16.5112 33.682312 -24.006073 52.40088 -20.835846c18.718506 3.170227 35.773132 16.74588 47.411926 37.740448l-55.928528 62.255585z" fill-rule="evenodd"/><path fill="#000000" fill-opacity="0.0" d="m643.1681 338.3459l0 0c14.83313 -16.5112 33.682312 -24.006073 52.40088 -20.835846c18.718506 3.170227 35.773132 16.74588 47.411926 37.740448" fill-rule="evenodd"/><path stroke="#033e6a" stroke-width="4.0" stroke-linejoin="round" stroke-linecap="butt" d="m643.1681 338.3459l0 0c14.83313 -16.5112 33.682312 -24.006073 52.40088 -20.835846c18.718506 3.170227 35.773132 16.74588 47.411926 37.740448" fill-rule="evenodd"/><path fill="#000000" fill-opacity="0.0" d="m643.88116 337.6182l0 0c-14.833191 16.5112 -33.682373 24.006073 -52.40088 20.835846c-18.718567 -3.170227 -35.773132 -16.74588 -47.411987 -37.740448l55.92859 -62.255615z" fill-rule="evenodd"/><path fill="#000000" fill-opacity="0.0" d="m643.88116 337.6182l0 0c-14.833191 16.5112 -33.682373 24.006073 -52.40088 20.835846c-18.718567 -3.170227 -35.773132 -16.74588 -47.411987 -37.740448" fill-rule="evenodd"/><path stroke="#033e6a" stroke-width="4.0" stroke-linejoin="round" stroke-linecap="butt" d="m643.88116 337.6182l0 0c-14.833191 16.5112 -33.682373 24.006073 -52.40088 20.835846c-18.718567 -3.170227 -35.773132 -16.74588 -47.411987 -37.740448" fill-rule="evenodd"/><path fill="#000000" fill-opacity="0.0" d="m543.64276 353.65744l0 0c24.659546 -43.316925 69.415955 -50.152405 99.966125 -15.267456l-44.650085 78.43225z" fill-rule="evenodd"/><path fill="#000000" fill-opacity="0.0" d="m543.64276 353.65744l0 0c24.659546 -43.316925 69.415955 -50.152405 99.966125 -15.267456" fill-rule="evenodd"/><path stroke="#033e6a" stroke-width="4.0" stroke-linejoin="round" stroke-linecap="butt" d="m543.64276 353.65744l0 0c24.659546 -43.316925 69.415955 -50.152405 99.966125 -15.267456" fill-rule="evenodd"/><path fill="#000000" fill-opacity="0.0" d="m741.2135 325.86755l0 0c-12.418152 20.118042 -29.963745 32.43271 -48.776855 34.234863c-18.81311 1.8021545 -37.352783 -7.055786 -51.540405 -24.625214l46.822815 -75.855225z" fill-rule="evenodd"/><path fill="#000000" fill-opacity="0.0" d="m741.2135 325.86755l0 0c-12.418152 20.118042 -29.963745 32.43271 -48.776855 34.234863c-18.81311 1.8021545 -37.352783 -7.055786 -51.540405 -24.625214" fill-rule="evenodd"/><path stroke="#033e6a" stroke-width="4.0" stroke-linejoin="round" stroke-linecap="butt" d="m741.2135 325.86755l0 0c-12.418152 20.118042 -29.963745 32.43271 -48.776855 34.234863c-18.81311 1.8021545 -37.352783 -7.055786 -51.540405 -24.625214" fill-rule="evenodd"/><path fill="#000000" fill-opacity="0.0" d="m553.31635 334.5804l0.26330566 5.1915894" fill-rule="evenodd"/><path stroke="#033e6a" stroke-width="4.0" stroke-linejoin="round" stroke-linecap="butt" d="m553.31635 334.5804l0.26330566 5.1915894" fill-rule="evenodd"/><path fill="#000000" fill-opacity="0.0" d="m562.83093 330.40585l0.13165283 13.7725525" fill-rule="evenodd"/><path stroke="#033e6a" stroke-width="4.0" stroke-linejoin="round" stroke-linecap="butt" d="m562.83093 330.40585l0.13165283 13.7725525" fill-rule="evenodd"/><path fill="#000000" fill-opacity="0.0" d="m572.3128 323.2208l0 28.633667" fill-rule="evenodd"/><path stroke="#033e6a" stroke-width="4.0" stroke-linejoin="round" stroke-linecap="butt" d="m572.3128 323.2208l0 28.633667" fill-rule="evenodd"/><path fill="#000000" fill-opacity="0.0" d="m581.5943 319.62823l0 36.126312" fill-rule="evenodd"/><path stroke="#033e6a" stroke-width="4.0" stroke-linejoin="round" stroke-linecap="butt" d="m581.5943 319.62823l0 36.126312" fill-rule="evenodd"/><path fill="#000000" fill-opacity="0.0" d="m590.9746 316.92935l0 41.3183" fill-rule="evenodd"/><path stroke="#033e6a" stroke-width="4.0" stroke-linejoin="round" stroke-linecap="butt" d="m590.9746 316.92935l0 41.3183" fill-rule="evenodd"/><path fill="#000000" fill-opacity="0.0" d="m600.34393 316.37827l0 42.56189" fill-rule="evenodd"/><path stroke="#033e6a" stroke-width="4.0" stroke-linejoin="round" stroke-linecap="butt" d="m600.34393 316.37827l0 42.56189" fill-rule="evenodd"/><path fill="#000000" fill-opacity="0.0" d="m609.737 317.43863l0 40.60321" fill-rule="evenodd"/><path stroke="#033e6a" stroke-width="4.0" stroke-linejoin="round" stroke-linecap="butt" d="m609.737 317.43863l0 40.60321" fill-rule="evenodd"/><path fill="#000000" fill-opacity="0.0" d="m619.11914 320.6416l0 34.354187" fill-rule="evenodd"/><path stroke="#033e6a" stroke-width="4.0" stroke-linejoin="round" stroke-linecap="butt" d="m619.11914 320.6416l0 34.354187" fill-rule="evenodd"/><path fill="#000000" fill-opacity="0.0" d="m628.4994 325.63483l0 24.529816" fill-rule="evenodd"/><path stroke="#033e6a" stroke-width="4.0" stroke-linejoin="round" stroke-linecap="butt" d="m628.4994 325.63483l0 24.529816" fill-rule="evenodd"/><path fill="#000000" fill-opacity="0.0" d="m637.88153 332.95462l0 10.383972" fill-rule="evenodd"/><path stroke="#033e6a" stroke-width="4.0" stroke-linejoin="round" stroke-linecap="butt" d="m637.88153 332.95462l0 10.383972" fill-rule="evenodd"/><path fill="#000000" fill-opacity="0.0" d="m647.2618 334.4632l0 7.9589844" fill-rule="evenodd"/><path stroke="#033e6a" stroke-width="4.0" stroke-linejoin="round" stroke-linecap="butt" d="m647.2618 334.4632l0 7.9589844" fill-rule="evenodd"/><path fill="#000000" fill-opacity="0.0" d="m656.6439 326.6656l0 23.44168" fill-rule="evenodd"/><path stroke="#033e6a" stroke-width="4.0" stroke-linejoin="round" stroke-linecap="butt" d="m656.6439 326.6656l0 23.44168" fill-rule="evenodd"/><path fill="#000000" fill-opacity="0.0" d="m666.026 321.46136l0 33.98114" fill-rule="evenodd"/><path stroke="#033e6a" stroke-width="4.0" stroke-linejoin="round" stroke-linecap="butt" d="m666.026 321.46136l0 33.98114" fill-rule="evenodd"/><path fill="#000000" fill-opacity="0.0" d="m675.4063 318.76508l0 39.546173" fill-rule="evenodd"/><path stroke="#033e6a" stroke-width="4.0" stroke-linejoin="round" stroke-linecap="butt" d="m675.4063 318.76508l0 39.546173" fill-rule="evenodd"/><path fill="#000000" fill-opacity="0.0" d="m684.7884 317.32013l0 42.934967" fill-rule="evenodd"/><path stroke="#033e6a" stroke-width="4.0" stroke-linejoin="round" stroke-linecap="butt" d="m684.7884 317.32013l0 42.934967" fill-rule="evenodd"/><path fill="#000000" fill-opacity="0.0" d="m694.1687 317.66287l0 42.21988" fill-rule="evenodd"/><path stroke="#033e6a" stroke-width="4.0" stroke-linejoin="round" stroke-linecap="butt" d="m694.1687 317.66287l0 42.21988" fill-rule="evenodd"/><path fill="#000000" fill-opacity="0.0" d="m703.5508 320.32953l0 37.401" fill-rule="evenodd"/><path stroke="#033e6a" stroke-width="4.0" stroke-linejoin="round" stroke-linecap="butt" d="m703.5508 320.32953l0 37.401" fill-rule="evenodd"/><path fill="#000000" fill-opacity="0.0" d="m712.9311 324.25018l0 29.690735" fill-rule="evenodd"/><path stroke="#033e6a" stroke-width="4.0" stroke-linejoin="round" stroke-linecap="butt" d="m712.9311 324.25018l0 29.690735" fill-rule="evenodd"/><path fill="#000000" fill-opacity="0.0" d="m722.3132 330.49738l0 17.006104" fill-rule="evenodd"/><path stroke="#033e6a" stroke-width="4.0" stroke-linejoin="round" stroke-linecap="butt" d="m722.3132 330.49738l0 17.006104" fill-rule="evenodd"/><path fill="#000000" fill-opacity="0.0" d="m738.3085 347.6207l0 -17.130432" fill-rule="evenodd"/><path stroke="#033e6a" stroke-width="4.0" stroke-linejoin="round" stroke-linecap="butt" d="m738.3085 347.6207l0 -17.130432" fill-rule="evenodd"/><path fill="#000000" fill-opacity="0.0" d="m338.4232 339.86658l0 0c14.690552 -16.265686 33.35849 -23.649384 51.897034 -20.526794c18.538544 3.1225586 35.42917 16.495636 46.956085 37.177307l-55.39081 61.329773z" fill-rule="evenodd"/><path fill="#000000" fill-opacity="0.0" d="m338.4232 339.86658l0 0c14.690552 -16.265686 33.35849 -23.649384 51.897034 -20.526794c18.538544 3.1225586 35.42917 16.495636 46.956085 37.177307" fill-rule="evenodd"/><path stroke="#033e6a" stroke-width="4.0" stroke-linejoin="round" stroke-linecap="butt" d="m338.4232 339.86658l0 0c14.690552 -16.265686 33.35849 -23.649384 51.897034 -20.526794c18.538544 3.1225586 35.42917 16.495636 46.956085 37.177307" fill-rule="evenodd"/><path fill="#000000" fill-opacity="0.0" d="m339.12943 339.1497l0 0c-14.690552 16.265686 -33.35846 23.649384 -51.897034 20.526794c-18.538544 -3.1225586 -35.429153 -16.495636 -46.95607 -37.177307l55.390793 -61.329803z" fill-rule="evenodd"/><path fill="#000000" fill-opacity="0.0" d="m339.12943 339.1497l0 0c-14.690552 16.265686 -33.35846 23.649384 -51.897034 20.526794c-18.538544 -3.1225586 -35.429153 -16.495636 -46.95607 -37.177307" fill-rule="evenodd"/><path stroke="#033e6a" stroke-width="4.0" stroke-linejoin="round" stroke-linecap="butt" d="m339.12943 339.1497l0 0c-14.690552 16.265686 -33.35846 23.649384 -51.897034 20.526794c-18.538544 -3.1225586 -35.429153 -16.495636 -46.95607 -37.177307" fill-rule="evenodd"/><path fill="#000000" fill-opacity="0.0" d="m239.85489 354.95242l0 0c24.422424 -42.672424 68.74844 -49.407135 99.00488 -15.042419l-44.220734 77.26526z" fill-rule="evenodd"/><path fill="#000000" fill-opacity="0.0" d="m239.85489 354.95242l0 0c24.422424 -42.672424 68.74844 -49.407135 99.00488 -15.042419" fill-rule="evenodd"/><path stroke="#033e6a" stroke-width="4.0" stroke-linejoin="round" stroke-linecap="butt" d="m239.85489 354.95242l0 0c24.422424 -42.672424 68.74844 -49.407135 99.00488 -15.042419" fill-rule="evenodd"/><path fill="#000000" fill-opacity="0.0" d="m435.5259 327.57175l0 0c-12.298767 19.818756 -29.675629 31.95044 -48.30786 33.726196c-18.632263 1.7757568 -36.99362 -6.9498596 -51.0448 -24.257294l46.372528 -74.726654z" fill-rule="evenodd"/><path fill="#000000" fill-opacity="0.0" d="m435.5259 327.57175l0 0c-12.298767 19.818756 -29.675629 31.95044 -48.30786 33.726196c-18.632263 1.7757568 -36.99362 -6.9498596 -51.0448 -24.257294" fill-rule="evenodd"/><path stroke="#033e6a" stroke-width="4.0" stroke-linejoin="round" stroke-linecap="butt" d="m435.5259 327.57175l0 0c-12.298767 19.818756 -29.675629 31.95044 -48.30786 33.726196c-18.632263 1.7757568 -36.99362 -6.9498596 -51.0448 -24.257294" fill-rule="evenodd"/><path fill="#000000" fill-opacity="0.0" d="m249.43541 336.1593l0.26081848 5.114258" fill-rule="evenodd"/><path stroke="#033e6a" stroke-width="4.0" stroke-linejoin="round" stroke-linecap="butt" d="m249.43541 336.1593l0.26081848 5.114258" fill-rule="evenodd"/><path fill="#000000" fill-opacity="0.0" d="m258.8585 332.04666l0.13043213 13.567444" fill-rule="evenodd"/><path stroke="#033e6a" stroke-width="4.0" stroke-linejoin="round" stroke-linecap="butt" d="m258.8585 332.04666l0.13043213 13.567444" fill-rule="evenodd"/><path fill="#000000" fill-opacity="0.0" d="m268.24924 324.96838l0 28.207275" fill-rule="evenodd"/><path stroke="#033e6a" stroke-width="4.0" stroke-linejoin="round" stroke-linecap="butt" d="m268.24924 324.96838l0 28.207275" fill-rule="evenodd"/><path fill="#000000" fill-opacity="0.0" d="m277.4415 321.4291l0 35.588318" fill-rule="evenodd"/><path stroke="#033e6a" stroke-width="4.0" stroke-linejoin="round" stroke-linecap="butt" d="m277.4415 321.4291l0 35.588318" fill-rule="evenodd"/><path fill="#000000" fill-opacity="0.0" d="m286.7316 318.7702l0 40.702972" fill-rule="evenodd"/><path stroke="#033e6a" stroke-width="4.0" stroke-linejoin="round" stroke-linecap="butt" d="m286.7316 318.7702l0 40.702972" fill-rule="evenodd"/><path fill="#000000" fill-opacity="0.0" d="m296.0108 318.22708l0 41.92807" fill-rule="evenodd"/><path stroke="#033e6a" stroke-width="4.0" stroke-linejoin="round" stroke-linecap="butt" d="m296.0108 318.22708l0 41.92807" fill-rule="evenodd"/><path fill="#000000" fill-opacity="0.0" d="m305.31357 319.27142l0 39.998566" fill-rule="evenodd"/><path stroke="#033e6a" stroke-width="4.0" stroke-linejoin="round" stroke-linecap="butt" d="m305.31357 319.27142l0 39.998566" fill-rule="evenodd"/><path fill="#000000" fill-opacity="0.0" d="m314.60547 322.42648l0 33.84259" fill-rule="evenodd"/><path stroke="#033e6a" stroke-width="4.0" stroke-linejoin="round" stroke-linecap="butt" d="m314.60547 322.42648l0 33.84259" fill-rule="evenodd"/><path fill="#000000" fill-opacity="0.0" d="m323.89557 327.34515l0 24.16452" fill-rule="evenodd"/><path stroke="#033e6a" stroke-width="4.0" stroke-linejoin="round" stroke-linecap="butt" d="m323.89557 327.34515l0 24.16452" fill-rule="evenodd"/><path fill="#000000" fill-opacity="0.0" d="m333.18747 334.5557l0 10.22934" fill-rule="evenodd"/><path stroke="#033e6a" stroke-width="4.0" stroke-linejoin="round" stroke-linecap="butt" d="m333.18747 334.5557l0 10.22934" fill-rule="evenodd"/><path fill="#000000" fill-opacity="0.0" d="m342.47754 336.0416l0 7.840454" fill-rule="evenodd"/><path stroke="#033e6a" stroke-width="4.0" stroke-linejoin="round" stroke-linecap="butt" d="m342.47754 336.0416l0 7.840454" fill-rule="evenodd"/><path fill="#000000" fill-opacity="0.0" d="m351.76944 328.3599l0 23.09259" fill-rule="evenodd"/><path stroke="#033e6a" stroke-width="4.0" stroke-linejoin="round" stroke-linecap="butt" d="m351.76944 328.3599l0 23.09259" fill-rule="evenodd"/><path fill="#000000" fill-opacity="0.0" d="m361.06134 323.23297l0 33.475067" fill-rule="evenodd"/><path stroke="#033e6a" stroke-width="4.0" stroke-linejoin="round" stroke-linecap="butt" d="m361.06134 323.23297l0 33.475067" fill-rule="evenodd"/><path fill="#000000" fill-opacity="0.0" d="m370.35144 320.5766l0 38.957245" fill-rule="evenodd"/><path stroke="#033e6a" stroke-width="4.0" stroke-linejoin="round" stroke-linecap="butt" d="m370.35144 320.5766l0 38.957245" fill-rule="evenodd"/><path fill="#000000" fill-opacity="0.0" d="m379.6433 319.15295l0 42.295563" fill-rule="evenodd"/><path stroke="#033e6a" stroke-width="4.0" stroke-linejoin="round" stroke-linecap="butt" d="m379.6433 319.15295l0 42.295563" fill-rule="evenodd"/><path fill="#000000" fill-opacity="0.0" d="m388.9334 319.49036l0 41.591156" fill-rule="evenodd"/><path stroke="#033e6a" stroke-width="4.0" stroke-linejoin="round" stroke-linecap="butt" d="m388.9334 319.49036l0 41.591156" fill-rule="evenodd"/><path fill="#000000" fill-opacity="0.0" d="m398.2253 322.1171l0 36.844025" fill-rule="evenodd"/><path stroke="#033e6a" stroke-width="4.0" stroke-linejoin="round" stroke-linecap="butt" d="m398.2253 322.1171l0 36.844025" fill-rule="evenodd"/><path fill="#000000" fill-opacity="0.0" d="m407.51538 325.97913l0 29.248566" fill-rule="evenodd"/><path stroke="#033e6a" stroke-width="4.0" stroke-linejoin="round" stroke-linecap="butt" d="m407.51538 325.97913l0 29.248566" fill-rule="evenodd"/><path fill="#000000" fill-opacity="0.0" d="m416.80728 332.13306l0 16.752869" fill-rule="evenodd"/><path stroke="#033e6a" stroke-width="4.0" stroke-linejoin="round" stroke-linecap="butt" d="m416.80728 332.13306l0 16.752869" fill-rule="evenodd"/><path fill="#000000" fill-opacity="0.0" d="m432.6488 349.00104l0 -16.875366" fill-rule="evenodd"/><path stroke="#033e6a" stroke-width="4.0" stroke-linejoin="round" stroke-linecap="butt" d="m432.6488 349.00104l0 -16.875366" fill-rule="evenodd"/></g></svg>